<?xml version="1.0" encoding="utf-8"?>
<!-- Generator: Adobe Illustrator 24.0.2, SVG Export Plug-In . SVG Version: 6.00 Build 0)  -->
<svg version="1.1" id="Слой_1" xmlns="http://www.w3.org/2000/svg" xmlns:xlink="http://www.w3.org/1999/xlink" x="0px" y="0px"
	 viewBox="0 0 2801.24 2364.8" style="enable-background:new 0 0 2801.24 2364.8;" xml:space="preserve">
<style type="text/css">
	.st0{fill:#7D7D7D;}
	.st1{fill:url(#SVGID_1_);}
	.st2{fill:url(#SVGID_2_);}
	.st3{fill:url(#SVGID_3_);}
	.st4{fill:url(#SVGID_4_);}
	.st5{fill:url(#SVGID_5_);}
	.st6{fill:url(#SVGID_6_);}
	.st7{fill:url(#SVGID_7_);}
	.st8{fill:#807066;}
	.st9{fill:#5C5049;}
	.st10{fill:#C9C5B4;}
	.st11{fill:#292C47;}
	.st12{fill:#D4C3BD;}
	.st13{fill:#DE9673;}
	.st14{fill:#EEA886;}
	.st15{fill:#E6D3CC;}
	.st16{fill:#A77860;}
	.st17{opacity:0.72;fill:#FFFFFF;}
	.st18{fill:#D44040;}
	.st19{fill:url(#SVGID_8_);}
	.st20{fill:url(#SVGID_9_);}
	.st21{fill:#606060;}
	.st22{fill:#5380A6;}
	.st23{fill:#FFFFFF;}
	.st24{fill:url(#SVGID_10_);}
	.st25{fill:url(#SVGID_11_);}
	.st26{fill:#BC8551;}
	.st27{fill:#3469B7;}
	.st28{fill:#FFC655;}
	.st29{fill:#0E2D3D;}
	.st30{fill:#163342;}
	.st31{fill:#1D3B54;}
	.st32{fill:#285173;}
	.st33{fill:#FFBF55;}
	.st34{fill:#183C59;}
	.st35{fill:#616161;}
	.st36{fill:#E0CEC7;}
	.st37{fill:#EEA987;}
	.st38{fill:url(#SVGID_12_);}
	.st39{fill:#454C52;}
	.st40{fill:url(#SVGID_13_);}
	.st41{fill:url(#SVGID_14_);}
	.st42{fill:#CF8C6C;}
	.st43{fill:#DB9C7C;}
	.st44{fill:#223247;}
	.st45{fill:#EB4747;}
	.st46{fill:#FF4D4D;}
	.st47{fill:#AD3434;}
	.st48{fill:#C43B3B;}
	.st49{fill:url(#SVGID_15_);}
	.st50{fill:url(#SVGID_16_);}
	.st51{fill:url(#SVGID_17_);}
	.st52{fill:url(#SVGID_18_);}
	.st53{fill:url(#SVGID_19_);}
	.st54{fill:url(#SVGID_20_);}
	.st55{fill:#EDDAD3;}
	.st56{fill:#D6C5BE;}
	.st57{fill:#FAE6DE;}
	.st58{fill:url(#SVGID_21_);}
	.st59{fill:#706865;}
	.st60{fill:#BDAFAA;}
	.st61{fill:#252740;}
	.st62{fill:#3F446E;}
	.st63{fill:#B8A9A3;}
	.st64{fill:#B8B8B8;}
	.st65{fill:none;stroke:#FFFFFF;stroke-width:5;stroke-linecap:round;stroke-linejoin:round;stroke-miterlimit:10;}
	.st66{fill:none;stroke:#FFFFFF;stroke-linecap:round;stroke-linejoin:round;stroke-miterlimit:10;}
	.st67{fill:none;stroke:#FFFFFF;stroke-width:10;stroke-linecap:round;stroke-linejoin:round;stroke-miterlimit:10;}
	.st68{fill:#757575;stroke:#FFFFFF;stroke-width:10;stroke-linecap:round;stroke-linejoin:round;stroke-miterlimit:10;}
	.st69{fill:none;stroke:#1A2E35;stroke-linecap:round;stroke-linejoin:round;stroke-miterlimit:10;}
	.st70{fill:none;stroke:#1A2E35;stroke-linecap:round;stroke-linejoin:round;}
	.st71{fill:none;stroke:#1A2E35;stroke-linecap:round;stroke-linejoin:round;stroke-dasharray:3.0023,3.0023;}
	.st72{opacity:0.8;clip-path:url(#XMLID_2_);fill:#BA705A;}
	.st73{fill:#E9C2F2;}
	.st74{opacity:0.2;}
	.st75{fill:#E9C2F2;stroke:#1A2E35;stroke-linecap:round;stroke-linejoin:round;stroke-miterlimit:10;}
	.st76{fill:#1A2E35;}
	.st77{fill:#F9BAA0;stroke:#1A2E35;stroke-linecap:round;stroke-linejoin:round;stroke-miterlimit:10;}
	.st78{fill:#F9BAA0;stroke:#1A2E35;stroke-width:3;stroke-linecap:round;stroke-linejoin:round;stroke-miterlimit:10;}
	.st79{fill:none;stroke:#1A2E35;stroke-width:3;stroke-linecap:round;stroke-linejoin:round;stroke-miterlimit:10;}
	.st80{fill:#1A2E35;stroke:#1A2E35;stroke-linecap:round;stroke-linejoin:round;stroke-miterlimit:10;}
	.st81{opacity:0.8;clip-path:url(#XMLID_5_);fill:#BA705A;}
	.st82{fill:#FFFFFF;stroke:#1A2E35;stroke-linecap:round;stroke-linejoin:round;stroke-miterlimit:10;}
	.st83{fill:#5AE4A7;stroke:#1A2E35;stroke-linecap:round;stroke-linejoin:round;stroke-miterlimit:10;}
	.st84{fill:#F4D800;stroke:#1A2E35;stroke-linecap:round;stroke-linejoin:round;stroke-miterlimit:10;}
	.st85{opacity:0.64;fill:#F7AF00;}
	.st86{fill:#F9B800;}
	.st87{fill:#FFD400;}
	.st88{opacity:0.8;fill:#EA7F23;}
	.st89{fill:#F8B400;}
	.st90{opacity:0.69;fill:#EA6B0A;}
	.st91{opacity:0.79;fill:#EB7007;}
</style>
<g>
	<g>
		<g>
			
				<rect x="1057.97" y="-432.66" transform="matrix(-1.836970e-16 1 -1 -1.836970e-16 1239.9728 -924.0132)" class="st0" width="48.05" height="1181.28"/>
			
				<linearGradient id="SVGID_1_" gradientUnits="userSpaceOnUse" x1="4726.5605" y1="-7023.9468" x2="4726.5605" y2="-8255.5166" gradientTransform="matrix(0 1 -1 0 -6628.3872 -4568.5806)">
				<stop  offset="0" style="stop-color:#DBE0FF"/>
				<stop  offset="1" style="stop-color:#B3DCFF"/>
			</linearGradient>
			<polygon class="st1" points="518.72,190.15 518.72,125.81 1645.27,125.81 1645.27,190.15 			"/>
			<linearGradient id="SVGID_2_" gradientUnits="userSpaceOnUse" x1="916.1509" y1="3.2145" x2="1213.8069" y2="1129.7256">
				<stop  offset="0" style="stop-color:#C1E8FF"/>
				<stop  offset="1" style="stop-color:#FFFFFF"/>
			</linearGradient>
			<polygon class="st2" points="553.17,1149.17 553.17,125.81 1614.32,125.81 1614.32,1149.17 			"/>
			
				<rect x="2138.91" y="-134.67" transform="matrix(-1.836970e-16 1 -1 -1.836970e-16 2320.9148 -2004.9562)" class="st0" width="48.05" height="585.3"/>
			<linearGradient id="SVGID_3_" gradientUnits="userSpaceOnUse" x1="2295.3752" y1="-66.0482" x2="1988.5607" y2="452.9414">
				<stop  offset="0" style="stop-color:#DBE0FF"/>
				<stop  offset="1" style="stop-color:#B3DCFF"/>
			</linearGradient>
			<polygon class="st3" points="1883.84,215.17 1883.84,100.78 2442.03,100.78 2442.03,215.17 			"/>
			<linearGradient id="SVGID_4_" gradientUnits="userSpaceOnUse" x1="2162.9353" y1="12.3047" x2="2162.9353" y2="379.9617">
				<stop  offset="0" style="stop-color:#FFAD99"/>
				<stop  offset="1" style="stop-color:#DE6464"/>
			</linearGradient>
			<polygon class="st4" points="1900.05,290.99 1900.05,100.78 2425.82,100.78 2425.82,290.99 			"/>
			
				<rect x="2138.91" y="106.59" transform="matrix(-1.836970e-16 1 -1 -1.836970e-16 2562.176 -1763.6949)" class="st0" width="48.05" height="585.3"/>
			<linearGradient id="SVGID_5_" gradientUnits="userSpaceOnUse" x1="2217.8794" y1="361.3323" x2="1671.4137" y2="738.363">
				<stop  offset="0" style="stop-color:#DBE0FF"/>
				<stop  offset="1" style="stop-color:#B3DCFF"/>
			</linearGradient>
			<polygon class="st5" points="1883.84,456.43 1883.84,342.05 2442.03,342.05 2442.03,456.43 			"/>
			<linearGradient id="SVGID_6_" gradientUnits="userSpaceOnUse" x1="2162.9353" y1="640.2517" x2="2162.9353" y2="383.1573">
				<stop  offset="0" style="stop-color:#A8B1ED"/>
				<stop  offset="1" style="stop-color:#D877E3"/>
			</linearGradient>
			<polygon class="st6" points="1900.05,532.25 1900.05,342.05 2425.82,342.05 2425.82,532.25 			"/>
			<linearGradient id="SVGID_7_" gradientUnits="userSpaceOnUse" x1="1696.6576" y1="1746.9207" x2="1696.6576" y2="258.6399">
				<stop  offset="0" style="stop-color:#303669"/>
				<stop  offset="1" style="stop-color:#FAFDFF"/>
			</linearGradient>
			<rect x="1672.63" y="40.72" class="st7" width="48.05" height="1181.28"/>
			<g>
				<rect x="1527.08" y="1015.69" class="st8" width="10.52" height="328.54"/>
				<g>
					<polygon class="st9" points="1433.84,1333.99 1402.48,1125.41 1408.52,1124.48 1439.88,1333.06 					"/>
				</g>
				<g>
					<polygon class="st9" points="1395.54,1333.99 1364.18,1125.41 1370.22,1124.48 1401.58,1333.06 					"/>
				</g>
				<g>
					<polygon class="st9" points="1206.91,1333.99 1200.87,1333.06 1232.23,1124.48 1238.27,1125.41 					"/>
				</g>
				<path class="st10" d="M1412.29,1127.53l24.57-258.47c0,0-42.97-5.62-68.93-4.24l-39.02,262.71H1412.29z"/>
				<rect x="1328.91" y="1114.4" class="st10" width="83.39" height="13.13"/>
				<path class="st10" d="M1274.35,1117l-13.03-246.31c0,0,108.75-11.81,175.54-1.63L1274.35,1117z"/>
				<path class="st11" d="M1361.19,790.93c0,0,16.79-49.24-15.25-64.51c-32.04-15.27-59.25,6.8-64.39,18.74s-3.78,33.66,0.6,48.8
					c4.38,15.14,3.75,38.19-5.78,45.9c-9.52,7.71-21.33,20.51-20.75,46.57c0.36,16.17,63.62-41.36,63.62-41.36L1361.19,790.93z"/>
				<path class="st12" d="M1318.44,1320.83c0,0-1,34.8,3.97,36.89c4.97,2.09,23.78-10.01,32.07-21.97
					c8.3-11.97-10.39-39.82-13.46-55.19c-1.28-6.43-15.9-18.01-23.03-14.69s-12.33,11.81-12.33,11.81
					S1323.8,1290.11,1318.44,1320.83z"/>
				<g>
					<path class="st13" d="M1305.67,1277.68c0,0,6.17,11.87,9.34,21.09c3.17,9.22,3.77,34.73,5.77,36.5
						c2,1.77,17.76-6.18,19.86-15.72c2.1-9.54-4.29-28.61-10.37-38.64c-6.08-10.03-12.27-15.04-12.27-15.04
						S1307.25,1267.96,1305.67,1277.68z"/>
				</g>
				<polygon class="st12" points="1341.02,1280.56 1357.95,1305.28 1354.75,1307.47 1341.66,1288.37 				"/>
				<path class="st13" d="M1280.06,1007.27c0,0,8.28,13.98,0,24.17c-8.28,10.18-63.96,38.15-63.56,54.3
					c0.41,16.16,10.61,41.44,14.27,47.86c3.67,6.41,17.19,33.03,24.21,48.61c7.03,15.58,47.65,90.11,55.59,106.91
					s3.05-67.2,3.05-67.2l-40.63-119.13l94.92-92.47C1367.93,1010.32,1356.44,984.75,1280.06,1007.27z"/>
				<path class="st14" d="M1378.42,1009.58c0,0-1.83,12.01,3.05,17.11c4.89,5.09,27.4,34.78,15.48,63.94
					c-10.95,26.78-32.18,26.27-32.18,26.27h-32.85c0,0,9.54,48.21,6.46,79.97c-3.08,31.77-17.57,104.31-17.88,107.97
					c-0.31,3.67-13.89,15.12-17.86,9.32c0,0-0.37-43.68-2.51-60.17c-2.14-16.5-11.24-82.47-13.99-92.25
					c-2.75-9.77-18.94-39.4-18.94-42.46s-15.81-50.87,18.7-63.09C1320.43,1043.97,1332.62,1009.83,1378.42,1009.58z"/>
				<path class="st15" d="M1286.28,1347.85c0,0-22.66,26.43-20.11,31.18c2.55,4.75,24.78,7.17,38.76,3.08s16.96-37.5,24.24-51.38
					c3.05-5.81-1.04-24-8.67-25.9c-7.63-1.9-17.01,1.43-17.01,1.43S1309.77,1327.34,1286.28,1347.85z"/>
				<g>
					<path class="st14" d="M1303.48,1306.28c0,0-2.67,13.11-6,22.27c-3.33,9.16-18.91,29.37-18.47,32.01
						c0.44,2.63,17.69,6.36,25.33,0.27c7.63-6.1,14.66-24.94,16.23-36.57c1.57-11.62-0.08-19.42-0.08-19.42
						S1310.83,1299.71,1303.48,1306.28z"/>
				</g>
				<polygon class="st15" points="1329.16,1330.74 1326.79,1360.61 1322.91,1360.3 1324.75,1337.22 				"/>
				<path class="st11" d="M1396.95,1090.63c-10.33,27.14-32.18,26.27-32.18,26.27h-32.85c0,0-13.71-21.72-47.26-25.45
					c-7.44-0.83-15.85-0.77-25.31,0.6c-0.11,0.02-0.23,0.03-0.34,0.05c-44.59,6.61-35.98,22.97-35.84,23.4
					c-3.7-9.05-7.6-23.44-6.66-31.19c4.28-35.3,55.27-42.7,63.56-52.88c8.28-10.18,0-24.17,0-24.17
					c76.39-22.52,87.87,3.05,87.87,3.05c3.35-0.46,11.93-5.41,15.58-5.43c0,0,3.82,8.35,6.52,15.88
					C1392.4,1027.42,1408.16,1061.18,1396.95,1090.63z"/>
				<path class="st14" d="M1332.63,734.82c0,0,33.33,9.86,28.57,56.11c-4.76,46.25-26.53,43.87-28.57,44.21
					c-2.04,0.34-27.89,2.04-36.05-54.07S1332.63,734.82,1332.63,734.82z"/>
				<path class="st14" d="M1348.51,826.64c0,0-1.76,15.31,1.18,24.84c2.95,9.52-38.82,9.79-38.79,1.96
					c0.03-8.89,4.27-16.33,0.27-31.57C1307.17,806.61,1348.51,826.64,1348.51,826.64z"/>
				<path class="st11" d="M1324.02,755.44c0,0,18.11,28.81,37.17,35.49c0,0,10.41-48.34-32.58-58.46
					c-42.98-10.13-36.25,48.82-33.04,64.54C1295.57,797.01,1304.53,773.88,1324.02,755.44z"/>
				<path class="st16" d="M1316.11,828.59c0,0,13.19,13.74,30.05,1.43c0,0-1.39,8.78-13.52,9.91
					C1320.51,841.07,1316.11,828.59,1316.11,828.59z"/>
				<path class="st17" d="M1299.73,751.1c0,0,9.53-18.46,25.63-19.29c16.1-0.82,25.67,13.14,25.67,13.14s-6.28-15.72-25.65-15.72
					S1299.73,751.1,1299.73,751.1z"/>
				<rect x="1073.46" y="1015.69" class="st8" width="10.52" height="328.54"/>
				<path class="st18" d="M1400.03,878.59c-3.67-15.58-22.86-26.08-44.24-29.08c-21.38-3-39.62,0-39.62,0s-26.34,5.84-36.79,11.95
					c-9.51,5.56-29.52,29.28-33.07,42.62c-0.02,0.01-0.03,0.02-0.05,0.03L1220.79,967l-29.83,34.38h29.83
					c0,0,33.72-45.11,42.81-66.06c9.08-20.95,6.8-10.94,6.8-10.94s10.83,49.94,9.67,82.88c-0.64,18.14,103.45-2.38,103.45-2.38
					v-8.16v0c15.53-4.59,36.61-11.83,40.4-18.26C1430.01,968.09,1403.7,894.17,1400.03,878.59z"/>
				<g>
					<g>
						<linearGradient id="SVGID_8_" gradientUnits="userSpaceOnUse" x1="1469.837" y1="1018.7831" x2="1086.973" y2="787.8685">
							<stop  offset="0" style="stop-color:#F7F8FF"/>
							<stop  offset="1" style="stop-color:#6EBDFF"/>
						</linearGradient>
						<path class="st19" d="M1186.22,906.18v25.52c0,5.07,4.11,9.17,9.17,9.17h0.93v34.3h45.73v-34.3h75.78
							c41.48,0,44.67,55.83,44.67,55.83h113.26v-55.83v-34.7c0-5.07-4.11-9.17-9.17-9.17h-271.2
							C1190.33,897.01,1186.22,901.12,1186.22,906.18z"/>
						<linearGradient id="SVGID_9_" gradientUnits="userSpaceOnUse" x1="1217.2458" y1="985.9451" x2="1220.7341" y2="985.9451">
							<stop  offset="0" style="stop-color:#F7F8FF"/>
							<stop  offset="1" style="stop-color:#FFFFFF"/>
						</linearGradient>
						<polygon class="st20" points="1219.59,996.71 1218.33,996.71 1217.59,975.18 1220.79,975.18 						"/>
						<rect x="1475.76" y="914.76" class="st21" width="14.36" height="52.25"/>
						<path class="st22" d="M1445.25,940.88c0,14.43-11.7,26.12-26.12,26.12c-14.43,0-26.12-11.7-26.12-26.12
							c0-14.43,11.7-26.12,26.12-26.12C1433.56,914.76,1445.25,926.45,1445.25,940.88z"/>
						<path class="st23" d="M1439.37,940.88c0,11.18-9.06,20.24-20.24,20.24c-11.18,0-20.24-9.06-20.24-20.24
							c0-11.18,9.06-20.24,20.24-20.24C1430.31,920.64,1439.37,929.7,1439.37,940.88z"/>
						<circle class="st22" cx="1384.03" cy="917.75" r="6.91"/>
						<path class="st22" d="M1384.03,937.16c0,3.82-3.09,6.91-6.91,6.91c-3.82,0-6.91-3.1-6.91-6.91c0-3.82,3.1-6.91,6.91-6.91
							C1380.94,930.24,1384.03,933.34,1384.03,937.16z"/>
						<linearGradient id="SVGID_10_" gradientUnits="userSpaceOnUse" x1="1171.8464" y1="892.6219" x2="1459.1669" y2="892.6219">
							<stop  offset="0" style="stop-color:#F7F8FF"/>
							<stop  offset="1" style="stop-color:#6EBDFF"/>
						</linearGradient>
						<rect x="1200.58" y="888.23" class="st24" width="262.82" height="8.77"/>
					</g>
					<linearGradient id="SVGID_11_" gradientUnits="userSpaceOnUse" x1="1471.8627" y1="1084.5153" x2="1066.6354" y2="840.1128">
						<stop  offset="0" style="stop-color:#CDCED4"/>
						<stop  offset="1" style="stop-color:#B8B8B8"/>
					</linearGradient>
					<rect x="1151.13" y="996.71" class="st25" width="361.73" height="6.88"/>
				</g>
				<path class="st14" d="M1353.96,849.27c0,0-0.59,32.01-25.98,32.96c-25.39,0.95-20.1-30.7-20.1-30.7
					S1326.45,844.01,1353.96,849.27z"/>
				<rect x="1073.46" y="1001.38" class="st26" width="464.15" height="14.31"/>
				<path class="st27" d="M1328.91,996.71c0,0,0.69-9.09-10.51-9.09s-161.75,0-161.75,0s-30.69-0.55-30.69,13.76
					c0,14.31,0,255.1,0,255.1h160.55v-221.5C1286.52,1034.97,1287.04,996.71,1328.91,996.71z"/>
				<g>
					<g>
						<g>
							<polygon class="st28" points="1145.2,621.87 1267.43,622.43 1267.02,711.02 1266.94,729.69 1248.36,710.94 1144.79,710.46 
															"/>
						</g>
					</g>
					<path class="st23" d="M1196.77,669.96c-0.02,5.16,4.15,9.35,9.31,9.36c5.16,0.02,9.35-4.15,9.36-9.31
						c0.02-5.16-4.15-9.35-9.31-9.36C1200.98,660.64,1196.78,664.81,1196.77,669.96z"/>
					<path class="st23" d="M1166.11,669.86c-0.02,5.16,4.15,9.35,9.31,9.36s9.35-4.15,9.36-9.31c0.02-5.16-4.15-9.35-9.31-9.36
						C1170.32,660.54,1166.12,664.71,1166.11,669.86z"/>
					<path class="st23" d="M1226.72,670.05c-0.02,5.16,4.15,9.35,9.31,9.37s9.35-4.15,9.36-9.31c0.02-5.16-4.15-9.35-9.31-9.36
						C1230.93,660.73,1226.74,664.9,1226.72,670.05z"/>
				</g>
			</g>
			<g>
				<g>
					<g>
						<g>
							<g>
								<g>
									<path class="st29" d="M463.77,598.48c0,0,24.59,12.03,18.51,44.76c-6.08,32.73-8.77,37.14-1.97,49.92
										c6.8,12.79,14.83,67.34,8.71,77.68c-6.12,10.34-75.77-45.44-85.43-92.23c-9.66-46.8,6.12-67.61,11.7-75.36
										C420.87,595.49,442.06,587.47,463.77,598.48z"/>
								</g>
							</g>
						</g>
					</g>
				</g>
				<g>
					<g>
						<polygon class="st23" points="587.09,558.56 508.4,558.56 508.4,615.6 508.4,627.61 520.41,615.6 587.09,615.6 						"/>
					</g>
				</g>
				<g>
					<path class="st30" d="M454.49,1351.09h5.57v-19.37c0,0,10.05,7.95,17.79,17.37c2.16,2.62,14.92,4.4,29.28,3.76
						c14.36-0.64,14.16-4.58,13.81-9.76c-0.56-8.23-15.86-10.72-20.58-12c-4.72-1.29-15.42-19.73-18.86-24.22
						c-4.7-6.13-7.18-12.01-7.18-12.01s-2.68-10.93-15.97,0c-13.29,10.93-9.43,31.94-7.93,33.87
						C451.92,1330.64,454.49,1351.09,454.49,1351.09z"/>
				</g>
				<g>
					<path class="st14" d="M482.57,1331.07c4.93,3.21,17.79,0,17.79,0c-3.64-4.72-26.05-36.23-26.05-36.23
						c-13.61-7.93-18.99,2.98-18.99,2.98C460.88,1299.52,477.64,1327.85,482.57,1331.07z"/>
				</g>
				<g>
					<g>
						<g>
							<g>
								<path class="st14" d="M625.91,846.12c0,0,8.92,1.71,11.97-2.48c2.59-3.57,8.52-6.3,10.34-7.15
									c2.44-1.13,8.63-7.39,10.09-4.33c1.46,3.06-9.71,10.81-11.73,12.91c-2.02,2.09,10.95,3.02,13.19,5.05
									c2.24,2.04-0.51,23.43-9.34,21.76c-8.83-1.67-17.15-9.27-18.76-9.25c-1.61,0.01-6.47-0.96-6.47-0.96L625.91,846.12z"/>
							</g>
						</g>
					</g>
				</g>
				<g>
					<g>
						<g>
							<g>
								<path class="st14" d="M657.81,849.24c0,0,26.68,6.89,28.07,8.84c1.39,1.95,0.93,3.37-1.59,2.83
									c-2.52-0.54-25.97-5.91-25.97-5.91s30.21,13.46,31.7,14.81c0.87,0.79,0.15,3.6-1.23,3.43c-1.38-0.16-32.08-11.8-32.08-11.8
									s28.18,12.62,29.09,14.12c0.8,1.31-0.52,3.72-2.67,2.93c-2.15-0.79-28.97-11.03-28.97-11.03s19.93,10.48,19.96,12.2
									c0.02,1.05-0.5,3.51-5.56,0.65c-5.06-2.87-17.7-8.37-17.7-8.37L657.81,849.24z"/>
							</g>
						</g>
					</g>
				</g>
				<g>
					<path class="st30" d="M382.27,1351.84h3.43v-11.34c0,0,8.23,11.08,13.91,16.09c3.44,3.04,7.74,5.27,22.96,4.84
						c15.22-0.43,14.06-5.85,14.15-9.35c0.16-6.5-14.15-13.72-14.15-13.72c-5.79-5.14-20.15-26.47-20.15-26.47
						s-9.22-2.47-16.45,3.38c-7.23,5.84-4.99,19.03-4.77,22.46C381.41,1341.15,382.27,1351.84,382.27,1351.84z"/>
				</g>
				<g>
					<path class="st31" d="M392.77,900.18c0,0-18.14,23.58-23.06,51.56c-4.92,27.98,2.91,121.87,2.69,135.7
						c-0.21,13.83-13.08,48.24-10.5,74.28c2.57,26.05,12.72,155.68,12.72,155.68l27.79-5.51c0,0-1.61-132.16,0-143.1
						c1.61-10.93,4.83-50.79,5.48-55.29c0.64-4.5,40.83-122.71,40.83-142.88S436.51,867.27,392.77,900.18z"/>
				</g>
				<g>
					<path class="st31" d="M483.88,909.39c0,0,29.8,113.73,33.34,129.48c3.54,15.76,8.66,28.75,8.66,35.44
						c0,15.52-5.77,40.45-5.77,40.45l-37.84,180.97h-36.04c0,0,20.08-108.57,20.62-129.8c0.54-21.28,16.92-51.49,13.7-60.5
						c-3.22-9-51.77-112.87-51.77-112.87S392.02,876.38,483.88,909.39z"/>
				</g>
				<g>
					<path class="st14" d="M422.57,1338.36l-20.15-26.47l-16.45,3.38c0,0,4.76,11.56,12.42,20.76
						C404.27,1343.08,422.57,1338.36,422.57,1338.36z"/>
				</g>
				<g>
					<g>
						<path class="st32" d="M471.58,716.13c0,0,12.29,1.16,21.57,11.1c9.28,9.95,17.99,25.81,20.43,31.11
							c2.43,5.3,36.51,54.46,38.28,55.57c1.77,1.11,18.9,6.83,30.25,10.65c17.52,5.89,52.63,18.66,52.63,18.66l-6.97,22.08
							c0,0-66.03-21.6-82.56-25.68c-20.22-4.98-66.77-64.7-66.77-64.7S443.73,734.25,471.58,716.13z"/>
					</g>
				</g>
				<g>
					<g>
						<path class="st33" d="M450.14,707.51c0,0,15.91,7.52,21.44,8.62c5.53,1.1,26.96,28.95,30.72,39.12
							c3.76,10.17,0,25.42-7.74,43.32c-7.74,17.9-0.44,23.87-3.98,41.77c-3.54,17.9-2.4,84.88-1.74,94.82
							c0.66,9.95-103.45,25.02-124.01,6.9c0,0,13.91-60.36,30.39-77.59c3.56-3.73,3.19-28.55,0.75-34.74
							c-2.43-6.19-29.84-52.38-29.84-52.38s-2.01-46.85,9.95-56.14c10.39-8.07,38.7-10.94,43.78-12.71
							C424.96,706.73,439.75,705.96,450.14,707.51z"/>
					</g>
				</g>
				<g>
					<g>
						<path class="st14" d="M457.73,689.15c0,0-0.48,4.38-1.02,10.3c-0.21,2.34-0.44,4.93-0.65,7.58
							c-0.63,7.94-1.14,16.46-0.83,20.82c0,0-16.54,16.57-35.34-19.34c0,0,7.91-14.81,1.95-34.97
							C415.88,653.36,457.73,689.15,457.73,689.15z"/>
					</g>
				</g>
				<g>
					<path class="st34" d="M504.02,805.17c0,0,3.98-26.48-0.25-42.58c0,0,0,13.85-7.59,33.51L504.02,805.17z"/>
				</g>
				<g>
					<path class="st14" d="M407.17,711.05c0,0,11.38,33.6,42.61,31.13c31.23-2.47,14.8-28.37,14.8-28.37s-7.78-4.46-9.97-4.89
						c-2.19-0.42-34.53-0.83-34.53-0.83L407.17,711.05z"/>
				</g>
				<g>
					<path class="st32" d="M464.58,713.81c0,0,16.36,45.25,16.36,91.36c0,46.12,1.32,121.24,7.03,144.96
						c5.71,23.72,21.97,97.09,21.97,97.09l12.74-6.59c0,0-30.64-117.09-32.95-125.53c-2.31-8.44,1.76-97.64,3.95-105.11
						c2.2-7.47,11.54-40.71,10.09-49.94c-1.83-11.63-12.71-28.83-30.28-43.62L464.58,713.81z"/>
				</g>
				<g>
					<path class="st32" d="M413.34,709.64c0,0,10.17,32.55,15.32,74.25c5.15,41.69-15.82,235.22-29.87,279.15l-54.47-8.79
						c0,0,11.73-136.79,27.64-161.69c15.92-24.89,20.98-46.92,3.8-98.88c-17.18-51.96,7.53-77.69,7.53-77.69
						S408.57,710.18,413.34,709.64z"/>
				</g>
				<g>
					<polygon class="st35" points="472.11,847.69 406.06,962.09 332.64,919.7 395.82,803.64 					"/>
				</g>
				<g>
					<polygon class="st36" points="464.15,851.62 405.49,953.23 340.28,915.58 396.39,812.5 					"/>
				</g>
				<g>
					<polygon class="st35" points="442.51,842.5 446.63,835.37 420.26,820.14 415.12,826.68 					"/>
				</g>
				<g>
					<g>
						<g>
							<g>
								<g>
									<g>
										<path class="st14" d="M439.36,923.67c0,0-3,0.01-4.32-0.62c0,0-2.31-1.34-4-2.19c-0.54-0.27-1.02-0.49-1.34-0.6
											c-1.35-0.47-4.44-1.09-7.36-3.11c-2.92-2.02-13.26-14-13.26-14l4.88-7.43l3.58-7.61c0,0,21.72,1.4,24.65,2.97
											c0.29,0.16,0.56,0.32,0.81,0.49c2.36,1.57,3.45,3.73,4.6,4.7c0.42,0.36,4.33,4.19,4.2,5.82c-0.19,2.26-1.24,3.76-2.6,4.5
											c0,0-0.56,4.42-2.74,6.48c0,0-0.39,4.09-3.83,5.88C442.64,918.97,441.78,923.07,439.36,923.67z"/>
									</g>
								</g>
							</g>
						</g>
					</g>
				</g>
				<g>
					<g>
						<path class="st32" d="M394.6,716.13c0,0-20.06-5.75-31.55,16.36c-11.49,22.1-11.44,31.53-12.97,42.33
							c-1.45,10.19-8,38.01-8.66,40.89c-0.66,2.87-15.49,37.14-8.69,49.11c6.83,12.04,76.26,47.47,75.82,50.12
							c-0.44,2.65,12.02-26.79,12.02-26.79s-28.09-15.66-32.69-20.48c-7.47-7.83-23.24-16.27-20-25.98
							c3.81-11.41,15.23-49.91,17.89-55.55C388.42,780.5,411.51,723.31,394.6,716.13z"/>
					</g>
				</g>
				<g>
					<g>
						<g>
							<g>
								<g>
									<path class="st37" d="M460.2,602.11c0,0,35.71,11.22,16.32,72.85c-19.38,61.63-68.15-7.14-63.05-44.69
										C418.58,592.73,460.2,602.11,460.2,602.11z"/>
								</g>
							</g>
						</g>
					</g>
				</g>
				<g>
					<g>
						<g>
							<g>
								<g>
									<path class="st29" d="M480.18,638.07c0,0-17.74,17.41-47.44,19.59c0,0-11.41,13.38-12.29,18.63c0,0-26.49-45.16,6.07-72.23
										C459.09,576.99,492.15,626.92,480.18,638.07z"/>
								</g>
							</g>
						</g>
					</g>
				</g>
				<g>
					<g>
						<g>
							<g>
								<g>
									<path class="st37" d="M433.1,658.89c-0.23-4.49-2.99-14.69-9.66-11.84c-6.67,2.86,0.41,23.64,4.83,22.36
										C428.27,669.42,433.64,669.5,433.1,658.89z"/>
								</g>
							</g>
						</g>
					</g>
				</g>
				<g>
					<path class="st16" d="M456.71,699.45c-0.21,2.34-0.44,4.93-0.65,7.58c0,0-15.76-0.94-26.3-24.38
						C430.45,683.67,442,700.63,456.71,699.45z"/>
				</g>
			</g>
			<linearGradient id="SVGID_12_" gradientUnits="userSpaceOnUse" x1="625.7741" y1="1238.4602" x2="625.7741" y2="729.467">
				<stop  offset="0" style="stop-color:#FFC6C8"/>
				<stop  offset="1" style="stop-color:#EDB895"/>
			</linearGradient>
			<path class="st38" d="M662.29,783.88c0,0-18.5,125.68-101.05,211.13s-112.77,76.1-112.77,76.1s45.05,148.29,213.82,110.18
				C831.07,1143.19,801,721.97,801,721.97L662.29,783.88z"/>
			<g>
				<polygon class="st39" points="745.22,1338.81 745.22,1026.96 735.64,1026.96 735.64,1338.81 688.93,1338.81 688.93,1348.38 
					791.93,1348.38 791.93,1338.81 				"/>
				<linearGradient id="SVGID_13_" gradientUnits="userSpaceOnUse" x1="600.2922" y1="580.3804" x2="792.7339" y2="1007.7804">
					<stop  offset="0" style="stop-color:#5380A6"/>
					<stop  offset="1" style="stop-color:#184E7D"/>
				</linearGradient>
				<path class="st40" d="M796.37,886.18c-10.84-46.99,20.61-78.38,24.6-114.87c1.86-17.02,1.88-28.13,1.26-35.31
					c-0.59-6.87-6.06-12.23-12.93-12.86c-46.81-4.3-43.02-39.1-43.02-39.1h-25.85h-25.85c0,0,3.79,34.8-43.02,39.1
					c-6.87,0.63-12.33,5.99-12.93,12.86c-0.62,7.18-0.61,18.29,1.26,35.31c3.99,36.49,35.44,67.88,24.6,114.87
					c-10.84,46.99-32.07,67.88-32.07,149.18c0,0,16,9.7,88.02,9.7s88.02-9.7,88.02-9.7C828.45,954.05,807.21,933.17,796.37,886.18z"
					/>
			</g>
			<linearGradient id="SVGID_14_" gradientUnits="userSpaceOnUse" x1="655.8624" y1="747.6979" x2="801.2795" y2="747.6979">
				<stop  offset="0" style="stop-color:#FFC6C8"/>
				<stop  offset="1" style="stop-color:#EDB895"/>
			</linearGradient>
			<path class="st41" d="M801,721.97c0,0,6.77,31.75-46.68,47.82c-54.39,16.35-92.03,14.09-92.03,14.09s-18.26-55.97,6.75-60.29
				c0,0,52.16,20.86,108.68-12.19C777.72,711.41,790.79,711.02,801,721.97z"/>
			<g>
				<g>
					<path class="st14" d="M1126.27,748.08c0,0,5.92-11.04,6.88-12.7c0.96-1.66,5.75-4.01,11.5-6.23s14.5-2.65,15.37-2.04
						c0.87,0.62,2.03,0.83,2.95,3.4c0.92,2.56,0.3,5.24,0.3,5.24s2.63,2.63,1.6,5.87c0,0,2.36,2.58,0.59,6.07
						c0,0,2.23,2.58,0.74,5.01c0,0-4.81,2.37-6.33,3.75c-1.53,1.39-11.86,5.62-22.39,8.16
						C1137.47,764.61,1126.71,763.64,1126.27,748.08z"/>
				</g>
				<g>
					<path class="st42" d="M1143.49,743.58c0,0-0.57,6.27-1.62,7.95c-1.05,1.68,12.07,7.09,12.07,7.09
						S1151.09,744.47,1143.49,743.58z"/>
				</g>
				<g>
					<path class="st14" d="M758.27,845.78c0,0,1.5-12.44,1.67-14.35c0.17-1.91-2.41-6.59-5.83-11.71
						c-3.43-5.12-10.35-10.5-11.41-10.5c-1.06,0-2.14-0.49-4.37,1.08c-2.23,1.57-3.25,4.12-3.25,4.12s-3.66,0.64-4.68,3.88
						c0,0-3.41,0.76-3.97,4.63c0,0-3.31,0.83-3.48,3.68c0,0,2.57,4.7,3.03,6.71c0.45,2.01,6.47,11.42,13.64,19.54
						C739.61,852.88,748.98,858.26,758.27,845.78z"/>
				</g>
				<g>
					<path class="st14" d="M739.61,852.88c0,0,9.76,8.67,14.79,8.82c5.03,0.16,7.59-13.66,7.59-13.66l-4.34-8.46L739.61,852.88z"/>
				</g>
				<g>
					<path class="st14" d="M1119.64,755.94c0,0,4.89-4.61,7.03-8.6s11.87,17.06,11.87,17.06s-12.13,0.5-17.45,4.26
						C1115.77,772.41,1119.64,755.94,1119.64,755.94z"/>
				</g>
				<g>
					<path class="st14" d="M1133.58,735.14c0,0,10.68,0.86,16.31,3.89c1.27,0.69,2.38,1.58,2.22,3.02
						c-0.16,1.44-2.44,3.04-7.09,2.91c-4.65-0.13-10.71,1.82-10.71,1.82S1129.58,745.24,1133.58,735.14z"/>
				</g>
				<g>
					<path class="st42" d="M746.77,832.2c0,0-3.14,5.46-3.24,7.43c-0.11,1.98-13.95-1.13-13.95-1.13S740.04,828.56,746.77,832.2z"/>
				</g>
				<g>
					<path class="st43" d="M743.66,810.54c0,0,8.37,13.19,6.41,14.79c-1.96,1.61-3.65,1.01-3.65,1.01l0.98,6.99
						c0,0-1.96,4.99-6.83,1.4c0,0-1.35,4.85-5.63,0.82c0,0-2.32,2.81-4.63,1.29c-2.31-1.52-7.35-10.22-7.35-10.22
						s-0.4-2.46,3.32-3.82c0,0,0.34-3.85,4-4.75c0,0,0.61-3.07,4.57-4c0,0,2.37-6.08,7.87-4.83
						C742.71,809.23,743.31,809.98,743.66,810.54z"/>
				</g>
				<g>
					<path class="st14" d="M759.73,830.99c0,0-9.24-5.43-15.58-6.19c-1.44-0.17-2.86-0.07-3.56,1.2c-0.7,1.27,0.25,3.89,4.13,6.45
						c3.88,2.56,7.73,7.64,7.73,7.64S757.2,841.55,759.73,830.99z"/>
				</g>
				<g>
					<g>
						<path class="st15" d="M931.02,1407.47c-7.47,2.24-9.71,14.93-16.05,18.67c-6.35,3.73-37.33,6.35-38.45-3.36
							c-1.12-9.71,13-18.4,19.34-23.26c6.35-4.85,20.6-20.79,23.51-27.14c0,0,2.56,4.04,10.15,2.8c7.59-1.24,8.85-3.25,8.85-3.25
							c-0.28,7.51,2.34,12.84,3.1,15.76C944.08,1397.77,938.48,1405.23,931.02,1407.47z"/>
					</g>
				</g>
				<g>
					<g>
						<path class="st15" d="M981.64,1409.21c-5.76,5.25-6.85,13.61-13.2,17.35c-1.84,1.08-5.46,2.16-9.7,2.92
							c-7.75,1.39-17.58,1.69-22.4-1.12c-1.64-0.95-2.7-2.26-2.9-4.01c-1.12-9.71,13.27-20.58,19.61-25.43
							c3.9-2.98,7.95-9.93,11.17-16.31c2.01-3.99,3.69-7.75,4.81-10.2c0,0,0,0,0-0.01c0.02,0.04,0.37,0.7,1.3,1.37
							c1.31,0.93,3.77,1.88,8.14,1.16c6.08-1,8.42-2.6,9.11-3.2c0.04-0.03,0.07-0.07,0.09-0.09c0.04-0.04,0.07-0.07,0.09-0.09
							c0.01-0.01,0.02-0.02,0.03-0.03c0.01-0.01,0.01-0.01,0.02-0.02v0c0,0,0,0,0,0c1.25,6.07,3.22,12.26,3.97,15.18
							C994.43,1396.76,987.09,1404.25,981.64,1409.21z"/>
					</g>
				</g>
				<g>
					<g>
						<path class="st44" d="M926.85,642.97c0,0,24.25-2.54,32.98,20.87c8.74,23.41,16.96,31.08,17.99,43.38
							c4.16,49.75,27.4,38.5,20.86,67.17c-6.53,28.68-11.06,33.02-11.06,33.02l-55.54-10.89l-56.27,0.18
							c0,0,22.01-10.99,17.11-34.41c-4.9-23.41-17.11-61.79-10.22-87.93C889.61,648.23,912.36,644.96,926.85,642.97z"/>
					</g>
				</g>
				<g>
					<g>
						<path class="st14" d="M886.82,976.81c0,0-20.43,71.21-23.99,89.38c-3.56,18.17-13.54,106.18-14.61,121.15
							c-1.07,14.96,33.36,85.14,35.23,90.2c7.28,19.59,36.98,90.64,36.98,90.64s19.19,11.41,17.04-5.3
							c-6.53-50.72-9.59-63.26-14.16-89.59c-10.01-57.65-30.67-65.22-27.51-73.63c31.97-85.02,38.42-142.71,42.69-147.7
							c4.28-4.99,4.86,2.54,7.36,13.59c2.49,11.05-1.01,87.08,3.48,116.43c2.44,15.98,7.95,51.8,9.73,72.47
							c1.78,20.67,11.11,116.31,11.11,116.31s1.23,3.57,15.49-4.33c2.36-1.31,13.67-84.54,14.03-109.12
							c0.36-24.59-10.52-28.1-1.79-75.7c18.69-102.03,16.1-119.6-5.69-192.93C938.87,809.26,886.82,976.81,886.82,976.81z"/>
					</g>
				</g>
				<g>
					<g>
						<path class="st45" d="M1136.06,768.31c-0.86-0.88-52.69,38.82-58.35,42.09c-11.12,6.43-23.23,6.1-35.8,6.87
							c-14.1,0.86-30.12-0.63-43.96,2.15c-7.18,1.44-8.02,3.31-11.76,10.95c-10.17,20.77-13.47,46.58-14.82,69.43
							c-1.41,23.82,7.73,40.36,17.32,61.37c3.26,7.14,7.86,14.5,1.54,21.02c-5.69,5.87-16.86,7.06-24.33,8.03
							c-18.36,2.4-46.5,3.87-64.17-3.42c-21.63-8.92-17.75-36.15-20.06-55.15c-1.55-12.72-7.69-31.78-11.22-44.12
							c-3.48-12.17-3.86-17.28-3.2-30.23c-6.74,19.15-12.43,51.89-30.59,64.05c-14.05,9.41-26.61-3.22-36.7-12
							c-19.16-16.67-38.32-33.34-57.48-50.01c4.08-3.77,8.17-7.54,12.25-11.31c1.34-1.24,1.41-1.57,2.94-2.79
							c3.58-2.87,3.17-3.92,6.87-1.39c2.48,1.69,9.1,7.84,11.21,9.79c6.94,6.46,13.03,10.38,19.97,16.83
							c6.04,5.61,16.38,18.63,25.64,14.09c7.13-3.5,9.07-17.99,11.52-24.46c6.8-17.97,13.66-36.05,21.76-53.48
							c8.68-18.65,27.88-28.56,46.5-35.98c16.13-6.43,37.71-5.14,54.06-0.98c11.48,2.92,15.58,3.1,27.01,6.27
							c10.91,3.03,21.13,6.92,32.19,9.21c12.92,2.67,26.09,3.59,39.24,3.75c10.35,0.13,14.63-1.61,23.33-7.66
							c11.71-8.13,28.84-22.17,41.7-28.66C1126.92,748.39,1129.75,761.84,1136.06,768.31z"/>
					</g>
				</g>
				<g>
					<g>
						<path class="st14" d="M943.6,740.23c0,0-1.95,24.2,2.71,31.45c4.66,7.25-3.99,17.09-21.81,13.72
							c-17.82-3.37-16.78-13.47-16.78-13.47s4.99-14.94,3.53-26.89C909.8,733.1,943.6,740.23,943.6,740.23z"/>
					</g>
				</g>
				<g>
					<g>
						<path class="st14" d="M955.19,769.64c0,0-16.07,37.54-36.89,45.39c0,0-20.53-18.23-15-45.23
							C903.3,769.8,929.79,756.23,955.19,769.64z"/>
					</g>
				</g>
				<g>
					<g>
						<path class="st14" d="M930.05,656.66c0,0,32.11,4.63,27.41,52.04c-4.7,47.4-33.04,43.64-34.93,43.6
							c-1.89-0.04-28.43,0.99-30.73-56.86C891.8,695.44,890.73,652.67,930.05,656.66z"/>
					</g>
				</g>
				<g>
					<g>
						<path class="st44" d="M926.38,673.84c0,0,15,15.77,21.97,23.76c6.97,7.99,7.77,23.41,7.77,23.41s11.74-14.34,6.83-31.04
							c-4.91-16.7-16.53-49.19-45.93-39.21c-29.4,9.98-30.49,53.91-27.04,75.69C889.98,726.46,903.18,678.38,926.38,673.84z"/>
					</g>
				</g>
				<g>
					<path class="st16" d="M914.03,750.3c0,0,13.73,6.88,27.65-3.98c0,0-5.34,8.88-14.67,9.37
						C917.69,756.17,914.03,750.3,914.03,750.3z"/>
				</g>
				<g>
					<path class="st45" d="M992.72,970.71c0,0,32.43,67.15,10.63,203.4c0,0-66.13-6.2-165.32-13.28c0,0,45.12-183.27,46.39-194.92
						C885.68,954.26,992.72,970.71,992.72,970.71z"/>
				</g>
				<g>
					<g>
						<path class="st14" d="M919.86,1366.83c0,0,9.26,6.17,17.83-2.05l0.69,7.15c0,0-14.63,13.16-18.51-0.98V1366.83z"/>
					</g>
				</g>
				<g>
					<g>
						<path class="st14" d="M972.87,1365.64c0,0,5.53,5,13.89-2.48l1.08,8.34c0,0-14.24,14.57-18.12,0.42L972.87,1365.64z"/>
					</g>
				</g>
				<g>
					<g>
						<path class="st15" d="M919.86,1370.95c0,0-7.62,9.09-6.87,10.58c0.75,1.49,17.36,4.85,19.88,1.31
							c2.52-3.55,5.51-10.91,5.51-10.91S923.84,1378.37,919.86,1370.95z"/>
					</g>
				</g>
				<g>
					<g>
						<path class="st15" d="M970.18,1370.76c0,0-7.1,10.01-6.35,11.5c0.75,1.49,15.48,3.88,18,0.33c2.52-3.55,6.01-11.09,6.01-11.09
							S974.16,1378.19,970.18,1370.76z"/>
					</g>
				</g>
				<g>
					<path class="st46" d="M883.45,956.23c0,0,38.95,14.44,95.21-17.37c0,0,2.25,4.59,4.76,10.89c0,0-51.28,31.66-99,16.16
						C884.42,965.91,882.81,958.67,883.45,956.23z"/>
				</g>
				<g>
					<path class="st47" d="M872.22,824.61c-4.48,11.63-4.97,32.69-4.97,32.69s-1.46,5.51-3.79,12.06
						C862.81,838.07,872.22,824.61,872.22,824.61z"/>
				</g>
				<g>
					<g>
						<path class="st48" d="M923.7,772.45c-2.07,0-3.9-0.21-5.48-0.51c-6.45-1.23-9.14-4.32-9.3-4.45l0.79-3.03
							c0.03,0.03,3.62,3.26,9.3,4.3c7.64,1.4,16.28-0.69,24.77-6l1.27,2.88C936.61,770.93,929.31,772.45,923.7,772.45z"/>
					</g>
				</g>
				<linearGradient id="SVGID_15_" gradientUnits="userSpaceOnUse" x1="1021.8749" y1="602.2288" x2="1099.7234" y2="1073.8984">
					<stop  offset="0" style="stop-color:#A8B1ED"/>
					<stop  offset="1" style="stop-color:#D877E3"/>
				</linearGradient>
				<path class="st49" d="M1149.83,727.72c0,0-1.95,11.35-1.95,61.83c0,50.48-9.33,274.7-9.33,274.7H990.89
					c0,0-34.43-270.99,12.04-282.04c0,0,12.38-1.04,45.45,3.88C1081.46,791.01,1121.02,729.05,1149.83,727.72z"/>
				<g>
					<path class="st43" d="M1158.49,727.64c0,0-14.42,5.98-13.75,8.43c0.68,2.44,2.41,2.93,2.41,2.93l-4.82,5.16
						c0,0-1.26,5.22,4.79,5.07c0,0-1.68,4.75,4.14,3.91c0,0,0.29,3.63,3.05,3.72s11.89-4.15,11.89-4.15s2.01-1.71-0.25-4.96
						c0,0,1.71-3.25-0.78-6.08c0,0,1.2-3.05-1.51-6.08c0,0,1.57-6.33-3.65-8.46C1160.02,727.11,1159.09,727.38,1158.49,727.64z"/>
				</g>
				<linearGradient id="SVGID_16_" gradientUnits="userSpaceOnUse" x1="776.9573" y1="683.4264" x2="822.7503" y2="1132.2004">
					<stop  offset="0" style="stop-color:#E6956C"/>
					<stop  offset="1" style="stop-color:#FFBA52"/>
				</linearGradient>
				<path class="st50" d="M835.16,854.03c0,0-9.63,30.09-20.83,24.5c-11.19-5.6-30.3-17.84-30.3-17.84s-25.02,192.64,1.83,258.78
					c2.27,5.6,55.52,12.45,52.17-25.21S827.26,874.42,835.16,854.03z"/>
			</g>
			
				<rect x="2153.43" y="389.26" transform="matrix(-1.836970e-16 1 -1 -1.836970e-16 2833.4836 -1517.5045)" class="st0" width="44.12" height="537.46"/>
			
				<linearGradient id="SVGID_17_" gradientUnits="userSpaceOnUse" x1="5226.5703" y1="-8491.5703" x2="5226.5703" y2="-9051.9053" gradientTransform="matrix(0 1 -1 0 -6628.3872 -4568.5806)">
				<stop  offset="0" style="stop-color:#757FD4"/>
				<stop  offset="1" style="stop-color:#4DAEFF"/>
			</linearGradient>
			<polygon class="st51" points="1919.22,710.51 1919.22,605.47 2431.77,605.47 2431.77,710.51 			"/>
			
				<linearGradient id="SVGID_18_" gradientUnits="userSpaceOnUse" x1="5261.3799" y1="-8509.7021" x2="5261.3799" y2="-9037.5059" gradientTransform="matrix(0 1 -1 0 -6628.3872 -4568.5806)">
				<stop  offset="0" style="stop-color:#F7F8FF"/>
				<stop  offset="1" style="stop-color:#FFFFFF"/>
			</linearGradient>
			<polygon class="st52" points="1934.1,780.13 1934.1,605.47 2416.89,605.47 2416.89,780.13 			"/>
			
				<rect x="2153.43" y="610.8" transform="matrix(-1.836970e-16 1 -1 -1.836970e-16 3055.0227 -1295.9652)" class="st0" width="44.12" height="537.46"/>
			
				<linearGradient id="SVGID_19_" gradientUnits="userSpaceOnUse" x1="5448.1094" y1="-8491.5703" x2="5448.1094" y2="-9051.9053" gradientTransform="matrix(0 1 -1 0 -6628.3872 -4568.5806)">
				<stop  offset="0" style="stop-color:#757FD4"/>
				<stop  offset="1" style="stop-color:#4DAEFF"/>
			</linearGradient>
			<polygon class="st53" points="1919.22,932.05 1919.22,827.01 2431.77,827.01 2431.77,932.05 			"/>
			
				<linearGradient id="SVGID_20_" gradientUnits="userSpaceOnUse" x1="5482.9185" y1="-8509.7021" x2="5482.9185" y2="-9037.5059" gradientTransform="matrix(0 1 -1 0 -6628.3872 -4568.5806)">
				<stop  offset="0" style="stop-color:#F7F8FF"/>
				<stop  offset="1" style="stop-color:#FFFFFF"/>
			</linearGradient>
			<polygon class="st54" points="1934.1,1001.67 1934.1,827.01 2416.89,827.01 2416.89,1001.67 			"/>
			<g>
				<path class="st30" d="M2546.66,550.84c0,0,13.03-8.36,24.78,6.5c11.75,14.86,7.52,29.15,5.07,42.49
					c-2.43,13.23-14.28,43.5-9.25,56.84c5.03,13.34-1.4,20.28-1.4,20.28s-40.4,10.35-35.69-50.43
					C2534.88,565.76,2546.66,550.84,2546.66,550.84z"/>
			</g>
			<path class="st37" d="M2294.25,814.45c0,0,28.02-17.51,36.99-18.32c8.98-0.81,30.92-4.23,32.39,2.03
				c1.47,6.26,0.49,10.39-9.13,12.33c-9.62,1.93-27.2-3.77-33.01-2.2C2315.7,809.85,2290.79,822.3,2294.25,814.45z"/>
			<path class="st37" d="M2349.76,795.51c0,0,26.46-7.91,36.17-16.36c9.71-8.45,10.37,17,10.37,17l-36.46,10.24L2349.76,795.51z"/>
			<g>
				<path class="st55" d="M2529.35,665.6c0,0-15.38-2.11-25.71,5.63c-10.33,7.74-17.39,22.24-20.54,26.79
					c-3.15,4.55-40.02,45.25-41.86,45.98c-1.84,0.74-24.79,13.4-40.25,23.63c-15.46,10.23-39.81,22.55-39.81,22.55l13.21,16.2
					c0,0,65.08-23.3,78.62-35.9c14.46-13.46,81.33-80.23,81.33-80.23S2551.15,676.69,2529.35,665.6z"/>
			</g>
			<g>
				<path class="st31" d="M2417.41,1231.65c0,0-16.64,22.4-14.36,25.95c2.28,3.55,19.78,4.06,30.44,0s10.91-30.31,15.73-41.6
					c2.02-4.72-2.3-18.66-8.37-19.67c-6.07-1.01-12.67,1.96-12.67,1.96S2434.47,1214.18,2417.41,1231.65z"/>
			</g>
			<g>
				<g>
					<path class="st14" d="M2428.06,1198.11c0,0-3.5,9.54-4.78,18.65c-1.06,7.56-11.86,23.6-11.35,25.63
						c0.51,2.03,14.2,3.87,19.78-1.36c5.58-5.23,9.17-20.44,10.4-29.54c1.14-8.47,2.59-12.66,2.59-12.66
						S2433.39,1192.53,2428.06,1198.11z"/>
				</g>
			</g>
			<g>
				<polygon class="st31" points="2449.66,1214.03 2449.66,1237.49 2446.62,1237.49 2446.62,1219.36 				"/>
			</g>
			<g>
				<path class="st31" d="M2562.26,1232.02c0,0-16.04,22.03-13.76,25.58s19.78,4.06,30.44,0s10.91-30.31,15.72-41.6
					c2.02-4.72-2.3-18.66-8.37-19.67s-13.19,2.18-13.19,2.18S2579.32,1214.55,2562.26,1232.02z"/>
			</g>
			<g>
				<g>
					<path class="st14" d="M2573.11,1198.5c0,0-1.27,10.4-3.3,17.75c-2.03,7.36-12.94,24.1-12.43,26.12
						c0.51,2.03,14.2,3.87,19.78-1.36c5.58-5.23,9.89-20.38,10.4-29.54c0.51-9.17-1.27-15.15-1.27-15.15
						S2578.43,1192.92,2573.11,1198.5z"/>
				</g>
			</g>
			<g>
				<polygon class="st31" points="2594.93,1213.99 2594.93,1237.45 2591.89,1237.45 2591.89,1219.32 				"/>
			</g>
			<g>
				<g>
					<path class="st31" d="M2492.95,833.77c0,0-14.28,66.43-17.56,83.16c-3.28,16.73-12.46,97.73-13.45,111.51
						c-0.98,13.78-14.9,65.68-14.24,70.59c0.66,4.92-21.42,102.54-21.42,102.54s22.72,6.18,26.54,2.02
						c3.25-3.54,35.89-92.8,35.89-117.4c0-34,25.65-77.29,28.89-84.89c30.14-70.67,23.7-93.37,27.64-97.96
						c3.93-4.59,4.28,2.84,6.57,13c2.3,10.17,7.21,98.06,10.16,109.21c2.95,11.15,0.66,48.87,2.3,67.89
						c1.64,19.02,3.53,104.25,3.53,104.25s16.45,3.78,24.27,0.14c2.25-1.05,7.94-94.94,8.27-117.57
						c0.33-22.63,0.68-53.84,1.31-63.63c6.08-93.77,21.01-107.17-2.51-173.54C2555.1,718.83,2492.95,833.77,2492.95,833.77z"/>
				</g>
			</g>
			<g>
				<path class="st55" d="M2529.91,656.77c0,0-14.9,7.04-20.08,8.07c-5.18,1.04-25.26,27.12-28.77,36.64
					c-3.52,9.52,0,23.81,7.25,40.57c7.25,16.77,0.41,22.36,3.73,39.13c3.31,16.77-0.41,52.35-1.03,61.66
					c-0.62,9.32,88.89,17.22,108.14,0.24c0,0-15.4-40.02-17.88-44.16s-2.91-21.89-0.63-27.69c2.28-5.8,17.43-55.09,17.43-55.09
					s12.4-37.86,1.2-46.56c-9.73-7.56-36.25-10.25-41.01-11.91C2553.49,656.04,2539.64,655.32,2529.91,656.77z"/>
			</g>
			<g>
				<path class="st56" d="M2525.15,690l-9.06-10.61l7.86-27.92C2523.96,651.47,2526.6,667.02,2525.15,690z"/>
			</g>
			<g>
				<path class="st14" d="M2522.8,639.57c0,0,2.97,27.34,2.35,36.25c0,0,15.49,15.52,33.1-18.12c0,0-7.41-13.86-1.83-32.76
					C2562,606.05,2522.8,639.57,2522.8,639.57z"/>
			</g>
			<g>
				<polygon class="st14" points="2525.15,675.81 2525.15,690 2542.97,676.68 				"/>
			</g>
			<g>
				<polygon class="st56" points="2525.15,690 2532.55,680.83 2557.48,655.99 2565.54,663.76 				"/>
			</g>
			<g>
				<polygon class="st57" points="2516.09,679.39 2504.68,682.54 2523.96,651.47 				"/>
			</g>
			<g>
				<polygon class="st57" points="2532.55,680.83 2542.97,694.5 2564.27,658.81 2557.48,655.99 				"/>
			</g>
			<g>
				<path class="st16" d="M2523.3,645.58l0.62,5.49c0,0,12.31,2.31,28.42-17.34C2552.34,633.73,2540.82,647.65,2523.3,645.58z"/>
			</g>
			<path class="st37" d="M2328.64,808.12c-2.63,1.25-5.6,5.65-2.28,5.52c3.33-0.13,13.22-3.65,15.7-3.69
				C2344.54,809.9,2328.64,808.12,2328.64,808.12z"/>
			<g>
				<path class="st37" d="M2526.53,645.99c-4.85-0.18-18.39-1.76-25.06-32.95c-8.16-38.1,9.87-57.86,25.31-61.52
					c15.44-3.66,29.67,1.7,37.58,21.62c0,0,5.78,15.53-3.6,43.18C2551.38,643.98,2531.73,646.18,2526.53,645.99z"/>
			</g>
			<linearGradient id="SVGID_21_" gradientUnits="userSpaceOnUse" x1="2073.8826" y1="601.5537" x2="2645.6555" y2="1346.1458">
				<stop  offset="0" style="stop-color:#99A5FF"/>
				<stop  offset="1" style="stop-color:#8F6CCC"/>
			</linearGradient>
			<path class="st58" d="M2416.78,710.51c0,0,0.92,126.78,85.66,217.72c84.74,90.94,235.33,102.34,235.33,102.34l-479.85,126.11
				c0,0-323.82-119.6-323.82-446.18V605.47h482.8L2416.78,710.51z"/>
			<g>
				<path class="st30" d="M2538.92,576.23c0,0-20.73,1.29-40,30.24c0,0-9.02-34.83,14.55-50.73c23.58-15.9,40.09-2.23,45.84,4.7
					c0,0,8.25,1.9,8.51,17.55c0.26,15.65,10.78,39.27-12.31,50.48c0,0,2.2-17.87,0.17-21.95
					C2553.65,602.42,2546.59,605.18,2538.92,576.23z"/>
			</g>
			<g>
				<path class="st37" d="M2554.54,599.57c1.05-2.71,3.89-3.8,5.46-0.9c1.57,2.91-0.3,14.17-4.48,15.4
					C2551.34,615.31,2552.43,605.06,2554.54,599.57z"/>
			</g>
			<g>
				<path class="st14" d="M2483.36,852.08c0,0-1.56,2.56-3.88,3.42c-3.99,1.49-9.98-0.88-12.82,4.43
					c-2.84,5.31,11.53,17.79,15.34,18.44c3.81,0.65,9.8-5.42,14.36-17.12C2500.93,849.53,2483.36,852.08,2483.36,852.08z"/>
				<path class="st14" d="M2467.88,858.26c0,0-7.12,5.69-14.3,12.93c-6.3,6.35-12.44,14.82-11.71,16.49
					c0.81,1.86,7.23-5.48,13.89-11.39c6.13-5.44,5.81-3.42,5.81-3.42s0.06-0.58-5.49,6.55c-5.97,7.67-11.32,16.08-10.22,17.95
					c0.54,0.91,1.25,0.97,3.87-1.49c-1.21,1.72-0.91,2.26-0.24,2.78c3.45,2.7,13.97-7.34,18.15-11.32
					c-3.19,3.08-5.21,5.66-1.91,5.92c3.77,0.3,18.02-14.5,23.63-19.36C2495.47,868.61,2467.88,858.26,2467.88,858.26z"/>
			</g>
			<path class="st55" d="M2599.26,669.6c0,0,16.32,10.63,14.53,29.2c-1.79,18.57-15.31,37.14-18.43,44.43
				c-3.12,7.29-20.87,34.14-23.47,38.78c-2.6,4.64-13.85,24.91-28.91,42.43c-15.06,17.52-48.35,50.41-48.35,50.41l-18.2-20.76
				c0,0,27.73-30.77,44.44-47.63c16.72-16.86,33.6-59.84,41.79-77.81C2570.84,710.67,2578.13,664.22,2599.26,669.6z"/>
			<g>
				<g>
					<rect x="2101.97" y="851.43" class="st59" width="11.13" height="506.02"/>
					<rect x="1844.15" y="851.43" class="st59" width="11.13" height="506.02"/>
				</g>
				<rect x="1795.47" y="630.94" class="st60" width="366.31" height="522.85"/>
				<rect x="1814.14" y="649.99" class="st23" width="328.81" height="479.45"/>
				<rect x="1924.05" y="626.14" class="st59" width="109.16" height="24.65"/>
				<g>
					<path class="st61" d="M1721.81,751.5c0,0,25.45,53.66,7.93,56.87c-24.06,4.41-33.79-40.04-33.79-40.04L1721.81,751.5z"/>
					<g>
						<g>
							<g>
								<path class="st14" d="M1860.8,884.82c0,0,7.96-2.5,8.6-7.21c0.54-4.01,4.15-8.8,5.25-10.27c1.48-1.97,3.76-9.73,6.27-7.89
									c2.51,1.84-3.15,12.96-3.87,15.53c-0.72,2.57,10.16-2.32,12.86-1.65c2.69,0.67,9.77,19.16,1.91,21.65
									c-7.86,2.49-17.9-0.04-19.19,0.68c-1.3,0.71-5.65,2.04-5.65,2.04L1860.8,884.82z"/>
							</g>
						</g>
					</g>
					<g>
						<g>
							<g>
								<path class="st14" d="M1887.93,873.48c0,0,24.56-6.03,26.53-5.06c1.97,0.97,2.22,2.32-0.05,2.98
									c-2.27,0.66-23.56,6.51-23.56,6.51s30.27-2.25,32.06-1.81c1.05,0.26,1.68,2.84,0.5,3.31c-1.18,0.47-31.06,4.41-31.06,4.41
									s28.27-2.05,29.65-1.23c1.21,0.71,1.2,3.23-0.88,3.53c-2.09,0.3-28.21,3.68-28.21,3.68s20.67-0.2,21.43,1.18
									c0.47,0.85,1.12,3.05-4.21,2.94c-5.34-0.12-17.95,0.93-17.95,0.93L1887.93,873.48z"/>
							</g>
						</g>
					</g>
					<path class="st62" d="M1658.92,1349.04c0,0,13.18,19.58,18.49,24.3c0,0,11.81,4.33,12.99,12.59
						c1.18,8.26,0.98,13.78-12.99,14.17c-13.97,0.39-23.13-2.11-25.68-10.58c-2.56-8.46-8.16-14.22-8.16-14.22v17.71h-3.15
						c0,0-0.79-17.12-0.98-20.26c-0.2-3.15-2.26-15.25,4.38-20.61C1650.46,1346.78,1658.92,1349.04,1658.92,1349.04z"/>
					<path class="st62" d="M1724.91,1333.4c0,0,2.28,5.4,6.59,11.02c3.16,4.12,12.99,21.05,17.31,22.23
						c4.33,1.18,17.71,3.54,18.89,11.02c1.18,7.48,1.77,12.79-11.41,13.38c-13.18,0.59-21.84,1.38-28.13-7.87
						c-6.3-9.25-16.33-15.94-16.33-15.94v24.13h-5.12c0,0-2.36-25.11-3.74-26.88s-4.92-21.05,7.28-31.09
						C1722.45,1323.37,1724.91,1333.4,1724.91,1333.4z"/>
					<path class="st14" d="M1650.07,971.19c0,0-16.65,21.64-21.16,47.32c-4.51,25.67,2.67,111.85,2.47,124.54
						c-0.2,12.69-12,44.27-9.64,68.17c2.36,23.91,22.09,140.92,22.09,140.92l15.1-3.1c0,0-1.48-121.29,0-131.33
						c1.48-10.03,4.44-46.61,5.03-50.74c0.59-4.13,37.47-112.62,37.47-131.13C1701.42,1017.33,1690.2,940.99,1650.07,971.19z"/>
					<path class="st14" d="M1733.68,979.65c0,0,27.35,104.37,30.59,118.84c3.25,14.46,7.95,26.39,7.95,32.53
						c0,14.25-5.29,37.12-5.29,37.12l-42.03,165.27l-17.43,2.74c0,0,10.08-101.56,10.58-121.04c0.5-19.53,15.53-47.26,12.58-55.52
						c-2.95-8.26-47.51-103.59-47.51-103.59S1649.38,949.35,1733.68,979.65z"/>
					<path class="st14" d="M1677.41,1373.34c0,0-13.5,7.55-22.19-2.14c-7.34-8.18-11.4-19.06-11.4-19.06l15.1-3.1L1677.41,1373.34z"
						/>
					<path class="st14" d="M1748.81,1366.65c0,0-11.81,2.95-16.33,0c-4.52-2.95-19.91-28.95-25.01-30.51c0,0,4.94-10.02,17.43-2.74
						C1724.91,1333.4,1745.47,1362.32,1748.81,1366.65z"/>
					<path class="st62" d="M1772.23,1131.01c0,0-63.25,27.16-157.43,27.16c0,0,4.13-122.7,17.82-153.43
						c13.69-30.73,103.25-16.91,103.25-16.91S1772.23,1105.27,1772.23,1131.01z"/>
					<g>
						<path class="st55" d="M1722.39,802.28c0,0,11.28,1.06,19.79,10.19c8.52,9.13,16.52,23.68,18.75,28.55
							c2.23,4.87,33.51,49.99,35.13,51c1.62,1.01,15.29-2.58,26.25-3.49c17.87-1.49,44.61-10.6,44.61-10.6l3.97,20.2
							c0,0-65.76,21.22-80.94,17.48c-18.56-4.57-61.28-59.38-61.28-59.38S1696.83,818.91,1722.39,802.28z"/>
					</g>
					<g>
						<path class="st55" d="M1702.71,794.37c0,0,14.6,6.9,19.68,7.91c5.07,1.01,24.75,26.57,28.2,35.9c3.45,9.33,0,23.33-7.1,39.76
							c-7.1,16.43-0.41,21.91-3.65,38.34c-3.25,16.43-3.24,61.22-2.63,70.35c0.61,9.13-93.9,26.34-112.77,9.71
							c0,0,12.77-42.1,27.89-57.91c3.27-3.42,2.92-26.21,0.69-31.89c-2.23-5.68-27.39-48.07-27.39-48.07s-1.85-43,9.13-51.52
							c9.53-7.4,35.52-10.04,40.18-11.67S1693.18,792.95,1702.71,794.37z"/>
					</g>
					<g>
						<path class="st14" d="M1709.68,777.51c0,0-2.91,26.79-2.31,35.52c0,0-15.18,15.21-32.44-17.75c0,0,7.26-13.59,1.8-32.1
							C1671.27,744.67,1709.68,777.51,1709.68,777.51z"/>
					</g>
					<path class="st63" d="M1752.16,884c0,0,3.65-24.3-0.23-39.07c0,0,0,12.71-6.97,30.75L1752.16,884z"/>
					<polygon class="st18" points="1722.88,923.02 1662.26,1028.02 1594.87,989.11 1652.86,882.59 					"/>
					<g>
						<g>
							<g>
								<g>
									<g>
										<path class="st14" d="M1692.83,992.75c0,0-2.76,0.01-3.96-0.57c0,0-2.12-1.23-3.67-2.01c-0.49-0.25-0.93-0.45-1.23-0.55
											c-1.24-0.43-4.08-1-6.76-2.86c-2.68-1.86-12.17-12.85-12.17-12.85l4.48-6.82l3.29-6.98c0,0,19.93,1.29,22.63,2.73
											c0.26,0.14,0.52,0.29,0.74,0.45c2.16,1.44,3.17,3.43,4.22,4.31c0.38,0.33,3.98,3.85,3.85,5.34
											c-0.17,2.08-1.13,3.45-2.39,4.13c0,0-0.51,4.06-2.51,5.95c0,0-0.35,3.76-3.51,5.4
											C1695.83,988.43,1695.04,992.2,1692.83,992.75z"/>
									</g>
								</g>
							</g>
						</g>
					</g>
					<g>
						<path class="st55" d="M1651.75,802.28c0,0-18.41-5.27-28.96,15.01c-10.55,20.28-10.5,28.94-11.91,38.84
							c-1.33,9.35-7.34,34.89-7.95,37.53c-0.61,2.64-14.22,34.08-7.98,45.07c6.27,11.05,69.99,43.57,69.58,46
							c-0.41,2.43,11.03-24.59,11.03-24.59s-25.78-14.37-30-18.79c-6.86-7.19-21.33-14.93-18.35-23.85
							c3.49-10.47,13.98-45.81,16.41-50.98C1646.07,861.36,1667.27,808.87,1651.75,802.28z"/>
					</g>
					<path class="st37" d="M1664.85,727.25c0,0-3.35-4.02-4.6,0.03c-1.25,4.05,2.84,16.09,3.29,17.83c0,0,2.03,6.76,2.84,5.89
						C1667.19,750.14,1664.85,727.25,1664.85,727.25z"/>
					<path class="st37" d="M1723.34,727.75c0,0,3.35-4.02,4.6,0.03c1.25,4.05-2.84,16.09-3.29,17.83c0,0-2.03,6.76-2.84,5.89
						C1721,750.64,1723.34,727.75,1723.34,727.75z"/>
					<path class="st37" d="M1699.35,688.76c0,0,30.73,4.73,26.24,53.15c-4.5,48.41-31.63,44.57-33.44,44.53
						c-1.81-0.04-27.21,1.01-29.41-58.07C1662.74,728.36,1661.71,684.68,1699.35,688.76z"/>
					<path class="st61" d="M1668.63,725.47c0,0,34.11,10.14,50.44,6.9c0,0,1.04,6.03,3.39,6.4c2.34,0.37,3.54-11.52,3.54-11.52
						s0.8-39.37-34.82-39.74c-35.62-0.37-28.38,42.64-28.38,42.64l0.48,7.35C1663.3,737.5,1668.4,739.52,1668.63,725.47z"/>
					<path class="st16" d="M1680.06,781.81c0,0,10.76,10.2,27.32,0.84c0,0-4.89,8.17-14.17,7.96
						C1683.93,790.41,1680.06,781.81,1680.06,781.81z"/>
					<path class="st14" d="M1663.28,797.62c0,0,10.44,30.84,39.1,28.57c28.66-2.27,13.59-26.04,13.59-26.04s-7.14-4.1-9.15-4.48
						c-2.01-0.39-31.69-0.76-31.69-0.76L1663.28,797.62z"/>
				</g>
				<g>
					<g>
						<path class="st64" d="M1994.84,1057.34h-163.48l30.96-208.67l-16.3-93.19h23.14l-9.3-53.54h24.83l0.4,1.18
							c10.6,31.37,24.79,40.74,28.01,42.52c3.21-1.78,17.41-11.14,28.01-42.52l0.4-1.18h24.83l-9.3,53.54h23.14l-16.3,93.19
							L1994.84,1057.34z M1835.39,1053.86h155.42l-30.45-205.24l0.05-0.28l15.63-89.39h-23.13l9.3-53.54H1944
							c-12.51,36.11-29.51,43.48-30.24,43.78l-0.66,0.27l-0.66-0.27c-0.73-0.3-17.73-7.67-30.24-43.78h-18.21l9.3,53.54h-23.13
							l15.68,89.67l-0.04,0.28L1835.39,1053.86z"/>
					</g>
					<g>
						<path class="st64" d="M2101.14,1057.33h-83.48l30.98-208.66l-16.3-93.21h23.12l-9.28-53.53h24.83l0.4,1.18
							c11.94,35.43,28.5,42.78,28.67,42.85l1.06,0.45l0.01,1.16V1057.33z M2021.69,1053.86h75.98v-305.2
							c-4.03-2.19-18.3-11.86-29.15-43.24h-18.21l9.28,53.53h-23.11l15.68,89.69l-0.04,0.28L2021.69,1053.86z"/>
					</g>
					<g>
						<rect x="1913.1" y="702.81" class="st64" width="90.49" height="1.74"/>
					</g>
					<g>
						<rect x="1954.97" y="756.35" class="st64" width="48.61" height="1.74"/>
					</g>
					<g>
						<rect x="1962.12" y="847.77" class="st64" width="41.47" height="1.74"/>
					</g>
					<g>
						<rect x="1992.83" y="1055.6" class="st64" width="10.76" height="1.74"/>
					</g>
					<g>
						<rect x="2101.02" y="1055.6" class="st64" width="22.69" height="1.74"/>
					</g>
					<g>
						<rect x="1991.95" y="703.68" class="st64" width="1.74" height="351.92"/>
					</g>
					<g>
						<rect x="2075.1" y="756.35" class="st64" width="48.61" height="1.74"/>
					</g>
					<g>
						<rect x="2082.24" y="847.77" class="st64" width="41.47" height="1.74"/>
					</g>
					<g>
						<rect x="2112.08" y="703.68" class="st64" width="1.74" height="351.92"/>
					</g>
				</g>
			</g>
		</g>
	</g>
</g>
<g>
	<g>
		<g>
			<path class="st23" d="M993.34,1706.17c-1.05-8.95,2.97-14.46,11.54-15.46c8.58-1.01,13.76,3.42,14.81,12.37l3.35,28.58
				c1.05,8.95-2.97,14.46-11.55,15.47c-8.57,1-13.76-3.43-14.81-12.38L993.34,1706.17z M1005.46,1734.36
				c0.45,3.86,2.26,5.28,5.11,4.95c2.74-0.32,4.29-2.14,3.83-6l-3.49-29.82c-0.45-3.85-2.38-5.27-5.12-4.95
				c-2.86,0.33-4.28,2.14-3.83,5.99L1005.46,1734.36z M1039.26,1687.31l8.08-0.95l-24.11,91.01l-8.08,0.95L1039.26,1687.31z
				 M1040.19,1732.94c-1.05-8.95,2.97-14.46,11.55-15.46c8.57-1,13.76,3.43,14.8,12.37l3.35,28.59c1.05,8.95-2.97,14.46-11.54,15.46
				c-8.58,1-13.76-3.43-14.81-12.37L1040.19,1732.94z M1052.32,1761.12c0.45,3.85,2.25,5.28,5.11,4.95
				c2.74-0.32,4.29-2.14,3.83-5.99l-3.49-29.83c-0.45-3.85-2.38-5.26-5.12-4.94c-2.86,0.33-4.28,2.14-3.83,5.99L1052.32,1761.12z"/>
		</g>
		<path class="st65" d="M1090.27,1793.48l-101.56,11.9c-4.81,0.56-9.17-2.88-9.73-7.69l-12.29-104.91
			c-0.46-3.96,0.93-7.91,3.76-10.71l42.4-41.79c4.22-4.15,10.71-4.92,15.77-1.85l50.91,30.86c3.41,2.07,5.67,5.59,6.14,9.55
			l12.29,104.91C1098.52,1788.56,1095.08,1792.92,1090.27,1793.48z"/>
		<path class="st66" d="M1028.78,1651.95c0.42,3.58-2.14,6.82-5.72,7.23c-3.58,0.42-6.82-2.14-7.23-5.72
			c-0.42-3.58,2.14-6.82,5.72-7.23C1025.12,1645.82,1028.36,1648.38,1028.78,1651.95z"/>
		<path class="st66" d="M1022.3,1578.47c0,0,19.86,76.43,0,74.24"/>
		<path class="st66" d="M1017.24,1637.44c3.88-21.24,23.35-57.03,23.35-57.03"/>
		<path class="st66" d="M1022.3,1652.71c-2.63-0.29-4.24-1.77-5.06-4.11"/>
	</g>
	<g>
		<path class="st67" d="M1110.93,1606.85c17.51,14.13,31.37,32.85,39.59,54.68"/>
		<path class="st67" d="M905.3,1674.65c12.65-48.58,53.24-87.31,106.02-95.04c31.75-4.65,62.49,2.7,87.62,18.64"/>
		<path class="st67" d="M945.38,1804.16c-22.39-19.49-38.19-46.77-42.83-78.44"/>
		<path class="st67" d="M1024.94,1835.78c-24.04-0.92-46.77-8.55-66.03-21.31"/>
		<path class="st67" d="M1157.44,1688.37c10.31,70.39-38.39,135.8-108.77,146.12"/>
	</g>
</g>
<g>
	<g>
		<path class="st67" d="M2558.1,2088.64l-158.79-30.61c-0.9-0.17-1.49-1.04-1.31-1.94l19.83-102.87l162.04,31.24l-19.83,102.87
			C2559.87,2088.22,2559,2088.81,2558.1,2088.64z"/>
		<path class="st67" d="M2421.74,1919.56l167.01,32.2c0.9,0.17,1.49,1.04,1.31,1.94l-6.08,31.55l-170.27-32.82l6.08-31.55
			C2419.98,1919.98,2420.84,1919.39,2421.74,1919.56z"/>
		
			<rect x="2480.18" y="1934.4" transform="matrix(0.9819 0.1893 -0.1893 0.9819 424.4843 -435.4689)" class="st67" width="23.6" height="140.2"/>
		<path class="st67" d="M2505.25,1935.66c0,0,40.17-29.31,58.75-20.44c18.58,8.88,9.41,33.58,0.05,31.77"/>
		<path class="st67" d="M2521.13,1938.73c0,0,32.7-16.27,37.46-8.92c4.76,7.35-9.38,14.33-20.23,12.24"/>
		<path class="st67" d="M2506.33,1933.67c0,0,16.97-30.84,14.75-40.68l11.33-0.02c0,0,3.69,11.69-9.53,31.67"/>
		<path class="st67" d="M2505.25,1935.66c0,0-26.39-42.14-46.94-40.81c-20.55,1.33-21.22,27.67-11.86,29.48"/>
		<path class="st67" d="M2489.36,1932.6c0,0-24.3-27.26-31.46-22.2c-7.15,5.06,3.38,16.79,14.23,18.88"/>
		<path class="st67" d="M2504.99,1933.41c0,0-4.29-34.94,1.43-43.25l-10.51-4.23c0,0-7.77,9.49-2.92,32.94"/>
	</g>
	<g>
		<path class="st67" d="M2624.86,1886.29c17.81,22.54,29.79,49.77,33.86,79.27"/>
		<path class="st67" d="M2349.62,1912.67c29.46-56.93,90.95-93.7,158.87-88.43c40.85,3.17,77.06,21.01,103.85,47.95"/>
		<path class="st67" d="M2362.98,2085.29c-22.38-30.59-34.36-69.03-31.19-109.79"/>
		<path class="st67" d="M2453.14,2147.12c-29.68-7.93-55.83-23.86-76.22-45.18"/>
		<path class="st67" d="M2659.76,2000.95c-7.03,90.57-86.15,158.29-176.71,151.26"/>
	</g>
</g>
<g>
	<g>
		<g>
			<path class="st67" d="M1025.61,2160.48l-9.87-5.05c1.79-4.35,1.75-9.83,1.45-13.46c3.22,1.48,6.46,3.01,9.53,4.47
				C1026.54,2150.51,1026.21,2155.3,1025.61,2160.48z"/>
			<path class="st67" d="M1039.98,2152.94c3.2,1.64,6.55,2.73,9.93,3.32c2.34,12.96,3.35,34.5-8.08,56.84
				c-2.54,4.96-29.31-8.73-26.77-13.69c6.12-11.96,9.1-26.55,10.54-38.93c0.6-5.18,0.93-9.98,1.11-14.03
				C1032.29,2149.11,1037.22,2151.53,1039.98,2152.94z"/>
			<path class="st67" d="M1071.86,2090.63c8.58,4.39,14.61,11.88,17.33,20.39c2.77,8.49,2.27,18.1-2.12,26.68
				c-4.41,8.62-11.89,14.61-20.41,17.37c-5.32,1.74-11.08,2.18-16.75,1.2c-3.38-0.59-6.73-1.68-9.93-3.32
				c-2.77-1.41-7.69-3.83-13.26-6.5c-3.06-1.46-6.31-2.99-9.53-4.47c-7.72-3.56-15.19-6.83-19.06-8.09l33.79-66.05
				C1039.07,2073.07,1063.94,2086.58,1071.86,2090.63z"/>
			<path class="st67" d="M999.15,2036.67c9.52,11.86,20.53,22.33,32.77,31.17l-33.79,66.05c-14.33-4.76-29.27-7.55-44.45-8.34
				l-13.11-0.68l50.36-98.44L999.15,2036.67z"/>
			<path class="st67" d="M925.32,2127.66l58.95-115.23c0.93-1.82,3.16-2.54,4.98-1.61l4.36,2.23c1.82,0.93,2.54,3.16,1.61,4.98
				l-4.3,8.4l-50.36,98.44l-4.29,8.39c-0.93,1.82-3.16,2.54-4.98,1.61l-4.36-2.23C925.11,2131.71,924.39,2129.48,925.32,2127.66z"/>
		</g>
		<line class="st68" x1="927.07" y1="2055.87" x2="904.35" y2="2044.25"/>
		<line class="st68" x1="953.69" y1="2019.42" x2="939.37" y2="1994.36"/>
		<line class="st68" x1="913.09" y1="2098.77" x2="884.4" y2="2101.82"/>
	</g>
	<g>
		<path class="st67" d="M1102.99,1990.29c-19.5-18.02-43.73-31-70.61-36.87"/>
		<path class="st67" d="M1059.01,2241.99c54.56-23.07,92.83-77.09,92.83-140.05c0-37.87-13.85-72.5-36.75-99.11"/>
		<path class="st67" d="M900.92,2217.34c26.59,22.81,61.14,36.59,98.92,36.59"/>
		<path class="st67" d="M850.4,2129.85c5.18,27.91,17.99,53.14,36.18,73.46"/>
		<path class="st67" d="M999.84,1949.93c-83.95,0-152,68.05-152,152"/>
	</g>
</g>
<g>
	<path class="st69" d="M1565.76,868.61c-17.84-15.94-36.32-8.95-45.78-3.35c-1.9-10.83-8.65-29.43-32.35-32.62
		c-25.74-3.43-46.79,21.69-39.9,56.64c4.99,25.14,21.05,48.17,29.67,59.07c1.03,1.31,1.99,2.45,2.77,3.37c1.21,0,2.7-0.01,4.37-0.08
		c13.88-0.54,41.82-3.31,64.13-15.89C1579.74,918.28,1585.09,885.94,1565.76,868.61z"/>
	<g>
		<g>
			<path class="st70" d="M1465.58,968.06c0,0-0.25,0.46-0.67,1.33"/>
			<path class="st71" d="M1463.63,972.11c-6.86,15.3-27.09,70.21,20.23,100.38c92.51,58.98,123.64-80.15,52.81-67.65
				c-50.69,8.95,7.15,148.15,88.57,107.65"/>
			<path class="st70" d="M1626.6,1111.81c0.44-0.23,0.88-0.47,1.33-0.71"/>
		</g>
	</g>
</g>
<g>
	<g>
		<g>
			<defs>
				<path id="XMLID_4_" d="M1547.01,2179.97c0,0-52.21,35.53-73.25,33.16c-2.61-0.26-4.67-1.09-6.19-2.62
					c-13.72-14.15-24.74-39.01-24.74-39.01s6.53-9.07,26.69,14.97l12.82-11.76l-26.46-26.58c0,0,14.89-11.83,40.17,3.22
					c-0.84-1.81-17.16-37.31-4.86-85.64l-61.64-59.37l54.55-47.53l4.2-3.66c0,0,3.44,3.39,8.99,8.64
					c5.38,5.1,12.78,11.91,20.82,18.97c19.24,16.91,42.51,35.23,52.6,35.06C1589.39,2017.45,1547.01,2179.97,1547.01,2179.97z"/>
			</defs>
			<use xlink:href="#XMLID_4_"  style="overflow:visible;fill:#F9BAA0;"/>
			<clipPath id="XMLID_2_">
				<use xlink:href="#XMLID_4_"  style="overflow:visible;"/>
			</clipPath>
			<path class="st72" d="M1506.63,2156.68c0,0-29.74,30.67-32.87,56.45c-2.61-0.26-4.67-1.09-6.19-2.62
				c-13.72-14.15-24.74-39.01-24.74-39.01s6.53-9.07,26.69,14.97l12.82-11.76l-26.46-26.58c0,0,14.89-11.83,40.17,3.22
				c-0.84-1.81-17.16-37.31-4.86-85.64l-61.64-59.37l54.55-47.53l13.2,4.98c5.38,5.1,12.78,11.91,20.82,18.97
				c-11.54,16.95-36.27,51.93-36.27,51.93l21.37,28.99C1503.22,2063.68,1490.27,2136.76,1506.63,2156.68z"/>
			
				<use xlink:href="#XMLID_4_"  style="overflow:visible;fill:none;stroke:#1A2E35;stroke-linecap:round;stroke-linejoin:round;stroke-miterlimit:10;"/>
		</g>
		<path class="st69" d="M1482.34,2174.73c0,0,4.54-14.26,13.77-23.34"/>
	</g>
	<path class="st73" d="M2456.76,1766.26c-7.41,11.26-17.5,21.88-29.56,31.86c0,0-0.05,0-0.05,0.04
		c-96.03,79.51-317.43,118.8-317.43,118.8s-7.4,11.12-18.8,26.95c-20.48,28.41-54.01,72.05-81.34,93.93l-0.05,0
		c-11.53,9.28-21.99,14.64-29.88,13.2l41.52,153.43l18.59,66.61c0,0-190.9,83.28-517.44-11.97c0,0-3.69-42.61-0.93-51.71
		c0.13-0.41,0.26-0.87,0.44-1.33c3.04-7.33,12.79-16.09,12.79-16.09s-1.82-27.4-2.76-55.29c-0.73-21.66-0.93-43.61,0.66-53.37
		c2.32-14.07,12.61-48.07,17.78-64.78c1.85-5.92,3.05-9.68,3.05-9.68l-16.25-152.18l-4.68-43.82c0,0-0.08-0.81-0.24-2.28
		c-0.02-0.33-0.04-0.66-0.1-1.09l-2.56-23.51l-83.98,25.65c0,0,4.47,9.82,10.46,23.63c11.03,25.23,27.26,63.69,30.87,78.9
		c0.28,1.25,0.65,2.45,1.07,3.66c7.8,22.19,37.37,42.34,37.37,42.34l-79.52,92.95l-23.52-16.41c0,0-3.42,2.69-9.47,5.96
		c-15.46,8.39-47.91,20.72-83.32,1.89c-12.95-6.89-26.27-17.9-39.3-34.78c-62.69-81.16-89.61-147.26-80.79-225.06
		c8.82-77.84,358.17-317.13,427.49-314.65l103.11,22.78c2.22-1.84,8.26-6.62,12.9-6.39c18.75,0.96,19.24,22.74,19.24,22.74
		l231.07,37.51c0,0,23.94-11.99,28.12-11.79c10.22,0.5,14.59,9.28,14.59,9.28s59.87-35.85,79.15-27.51
		C2188.33,1542.01,2503.53,1695.18,2456.76,1766.26z"/>
	<g>
		<path class="st74" d="M1654.02,2146.02c0,0-35.87,44.06-100,54.24c-12.16,1.93-22.86,3.88-32.2,5.81
			c3.04-7.33,12.79-16.09,12.79-16.09s-1.82-27.4-2.76-55.29C1558.99,2152.42,1606.21,2173.06,1654.02,2146.02z"/>
		<path class="st74" d="M1550.31,2016.53c1.85-5.92,3.05-9.68,3.05-9.68l-16.25-152.18c24.28,34.83,110.89,153.51,170.62,166.32
			C1770.13,2034.35,1603.23,2057.97,1550.31,2016.53z"/>
		<path class="st74" d="M2021.16,2204.47c-65.2-7.42-157.44-23.85-166.67-57.98c-14.35-53.32,55.55-85.29,155.02-108.65
			c-11.53,9.28-21.99,14.64-29.88,13.2L2021.16,2204.47z"/>
		<path class="st74" d="M2427.15,1798.17c-96.03,79.51-317.43,118.8-317.43,118.8s-7.4,11.12-18.8,26.95
			c-18.71-43.74-45.67-134.18-14.14-245.34c0,0,17.06,92.37,87.86,114.31c0,0-54.19-40.36-35.28-137.53
			c0,0,18.48,114.37,138.81,145.94C2326.68,1836.65,2383.84,1819.64,2427.15,1798.17z"/>
		<path class="st74" d="M1532.19,1808.57l-2.66-24.6l-83.98,25.65c0,0,4.47,9.82,10.46,23.63c-32.11-3.32-93.04,26.52-103.68-5.98
			c-12.82-39.21,66.05-25.7,66.05-25.7l74.4-43.28c-14.08-60.17,21.74-105.41,21.74-105.41l6.8,41.97
			c3.26-79.81,34.47-123.46,34.47-123.46C1529.84,1634.52,1530.55,1789.84,1532.19,1808.57z"/>
		<path class="st74" d="M1525.3,1958.16l-79.52,92.95l-23.52-16.41c0,0-3.42,2.69-9.47,5.96c-15.46,8.39-47.91,20.72-83.32,1.89
			c25.77-35.65,78.99-88.14,142.34-108.41c0,0-26.07,38.13-42.25,72.21l16.34,16.11C1445.9,2022.45,1486.67,1975.97,1525.3,1958.16z
			"/>
		<path class="st74" d="M1718.47,1548.78c-0.02,8.18-5.18,101.18,62.47,125.76c67.64,24.57,127.8-17.1,127.8-17.1
			s-103.76,100.05-166.88,46.58C1678.74,1650.55,1718.47,1548.78,1718.47,1548.78z"/>
	</g>
	<path class="st69" d="M1522.31,2259.09c0,0-3.67-42.61-0.95-51.69c2.28-7.6,13.23-17.42,13.23-17.42s-5.74-86.39-2.07-108.65
		c3.15-19.08,20.84-74.5,20.84-74.5l-23.83-222.86l-83.99,25.67c0,0,35.76,78.99,41.29,102.53s38.47,46,38.47,46l-79.55,92.92
		l-23.5-16.38c0,0-69.4,54.26-132.1-26.93c-62.7-81.19-89.6-147.27-80.8-225.09c8.81-77.82,358.2-317.12,427.51-314.66l103.1,22.79
		c2.23-1.84,8.26-6.61,12.9-6.38c18.75,0.96,19.24,22.75,19.24,22.75l231.05,37.51c0,0,23.98-11.99,28.15-11.78
		c10.22,0.51,14.59,9.25,14.59,9.25s59.84-35.83,79.15-27.5c63.27,27.3,378.46,180.49,331.7,251.57
		c-66.38,100.91-347.02,150.69-347.02,150.69s-93.35,140.77-130.11,134.07l60.12,220.06"/>
	<path class="st75" d="M2212.58,1781.67c106.03,70.05,191.5,57.08,258.41-33.05c0,0,55.69-71.79,51.75-149.27
		c-3.94-77.47-22.45-330.11-263.84-265.51c-39.72,10.63-132.46,134.81-140.27,168.94c-3.57,15.6-40.79,94.99-76.92,177.16"/>
	<path class="st76" d="M1925.7,1039.61c0,0,67.53-10.25,114.48,31.77c59.34,53.11,125.95,196.29,31.06,433.59
		c0,0-140.15-93.06-379.37-30.83c0,0,20.6-55.67-15.56-230.88C1659.96,1164.05,1701.06,981.39,1925.7,1039.61z"/>
	<g>
		<path class="st77" d="M1823.28,1635.08c99.97,16.21,206.22-94.46,206.22-94.46s-54.36-6.7-59.23-32.22
			c-15.6-80.51,47.13-179.95,47.13-179.95s-242.75,6.72-200.3,61.65c8.9,11.53,15.03,22.57,19.2,32.92
			c14.72,36.16,4.51,63.44-3.32,70.1c-0.57,0.48-1.21,0.87-1.76,1.17c-14.69,6.71-75.02-3.28-75.02-3.28
			S1732.06,1620.29,1823.28,1635.08z"/>
		<path class="st69" d="M1995.07,1571.26c0,0-46.09,18.44-113.63,12.96l-30.42,14.91"/>
		<path class="st69" d="M1820.75,1596.66l-2.23-19.96c0,0-49.79-15.59-65.2-45.2"/>
		<path class="st76" d="M1832.97,1493.11c74.34,19.43,109.25-75.91,109.25-75.91s-59.47-17.73-105.93,5.82
			C1851.01,1459.17,1840.8,1486.45,1832.97,1493.11z"/>
	</g>
	<g>
		<path class="st78" d="M2021.68,1278.28c18.09-101.52-2.02-223.35-156.53-213.25c-110.39,7.21-109.48,128.24-102.17,164.37
			c12.29,60.76-5.32,84.69,13.61,135.72c13.6,36.68,45.22,77.69,82.41,93.06c22.89,9.45,115.54-55.56,122.38-85.29"/>
		<path class="st79" d="M1827.53,1248.35c-0.93,11.39-2.27,39.63-26.4,60.46c-15.61,13.47,20.23,27.26,20.23,27.26"/>
		<path class="st79" d="M1801.88,1208.08c0,0-34.1-16.61-57.14,10.8"/>
		<path class="st79" d="M1859.07,1205.93c0,0,32.95-11.82,72.89,2.87"/>
		<path class="st76" d="M1894.49,1253.85c1.06,9.79,7.65,17.11,14.73,16.35c7.07-0.77,11.95-9.32,10.89-19.12
			c-1.06-9.79-7.65-17.11-14.73-16.35C1898.3,1235.49,1893.43,1244.05,1894.49,1253.85z"/>
		<path class="st79" d="M1823.04,1368.14c42.88-5.2,76.25-27.85,76.25-27.85s3.18,42.59-32.48,51.45
			c-27.36,6.79-37.96-24.43-37.96-24.43"/>
		<path class="st76" d="M1923.32,1103.71c0,0-9.78,120.3,96.42,164l49.75-115.63l-75.26-83.36l-113.4-32.76
			c-169.41,10.56-242.36,115.85-148.29,396.31C1732.53,1432.27,1706.23,1098.24,1923.32,1103.71z"/>
		<path class="st78" d="M1996.52,1272.82c-1.46-13.52,32.73-47.96,44.31-25.86c19.73,37.66,5.35,70.5-15.05,83.37
			c-9.14,5.76-20.71,16.55-28.85,6.37"/>
		<path class="st76" d="M1791.1,1258.33c1.06,9.79,7.65,17.11,14.73,16.35c7.07-0.77,11.95-9.33,10.89-19.12
			s-7.65-17.11-14.73-16.35C1794.92,1239.97,1790.04,1248.53,1791.1,1258.33z"/>
		<g class="st74">
			<path class="st66" d="M1717.51,1238.58c-1.27,8.16-2.14,16.39-2.64,24.64"/>
			<path class="st66" d="M1905.72,1081.82c-85.83-2.27-165.58,52.44-184.57,138.34"/>
			<path class="st66" d="M1890.39,1057.3c0,0-123.76-29.11-170.17,52.98"/>
			<path class="st66" d="M1990.8,1200.32c7.57,10.52,16.36,20.24,26.68,28.13"/>
			<path class="st66" d="M1941.72,1073.34c6.63,38.68,19.37,77.97,39.26,111.85"/>
			<path class="st66" d="M2066.07,1445.65c-2.19,9.86-4.78,19.63-7.71,29.29"/>
			<path class="st66" d="M2058.92,1282.1c20.08,44.58,18.7,100.04,10.46,146.96"/>
			<path class="st66" d="M2044.18,1359.73c0,0,6.15,49.75-34.89,91.72"/>
			<path class="st66" d="M1987.11,1087.69c21.06,28.48,36.69,59,61.1,85.01c25.69,27.38,51.39,58.75,56.21,97.32"/>
			<path class="st66" d="M1957.44,1058.1c6.05,3.92,11.53,8.65,16.51,13.85"/>
		</g>
	</g>
	<path class="st80" d="M2380.84,1718.67c-2.45,0.55-4.93,0.96-7.45,1.32c-66.43,9.48-140.94-45.58-166.06-111.73
		c-19.86-52.21-2.47-111.47,6.98-136.83c3-7.95,5.16-12.57,5.16-12.57c40.05-57.23,272.98,54.71,275.68,116.4
		C2497.86,1636.92,2449.08,1703.74,2380.84,1718.67z"/>
	<g>
		<defs>
			<path id="XMLID_3_" d="M2453.71,1583.62c0,0-13.24,98-80.32,136.37c-66.43,9.48-140.94-45.58-166.06-111.73
				c-19.86-52.21-2.47-111.47,6.98-136.83c0-0.05,0.05-0.04,0.05-0.04C2292.83,1426.62,2453.71,1583.62,2453.71,1583.62z"/>
		</defs>
		<use xlink:href="#XMLID_3_"  style="overflow:visible;fill:#FFFFFF;"/>
		<clipPath id="XMLID_5_">
			<use xlink:href="#XMLID_3_"  style="overflow:visible;"/>
		</clipPath>
		<path class="st81" d="M2453.71,1583.62c0,0-13.24,98-80.32,136.37c-66.43,9.48-140.94-45.58-166.06-111.73
			c-19.86-52.21-2.47-111.47,6.98-136.83c0-0.05,0.05-0.04,0.05-0.04C2292.83,1426.62,2453.71,1583.62,2453.71,1583.62z"/>
		
			<use xlink:href="#XMLID_3_"  style="overflow:visible;fill:none;stroke:#1A2E35;stroke-linecap:round;stroke-linejoin:round;stroke-miterlimit:10;"/>
	</g>
	<path class="st69" d="M2179.07,1635.24c0,0,75.63,108.56,163.94,117.6c88.32,9.04,144.8-65.35,148.47-121.46"/>
	<path class="st77" d="M2136.52,1145.22c6.66-18.61,54.37-12.37,69.49,45.65c15.12,58.02,74.81,198.93,74.81,198.93
		s237.05-348.83,279.58-362.28c42.53-13.45,25.67,47-31.1,130.87c0,0,53.18-9.36,67.14,0.04c13.96,9.4,7.17,65.72,14.6,85.46
		c12.46,33.1-15.24,40.09-15.24,40.09s21.8-0.2,37.03,14.07c15.23,14.27,7.59,73.27,11.94,89.96c4.35,16.68-24.72,30.79-24.72,30.79
		s69.9,38.12,54.11,47.66c-26.61,16.08-41.79-0.39-41.79-0.39s-107.38,134.89-188.37,164.9s-238.68-89.34-255.63-154.36
		c-16.95-65.02,3.28-61.01-9.58-169.2C2165.94,1199.23,2136.52,1145.22,2136.52,1145.22z"/>
	<g>
		<path class="st82" d="M2482.35,931l-312.3,81.39c-11.09,2.89-17.74,14.23-14.85,25.32l147.61,566.38
			c2.89,11.09,14.23,17.74,25.32,14.85l312.3-81.39c11.09-2.89,17.74-14.23,14.85-25.32l-147.61-566.38
			C2504.77,934.75,2493.44,928.11,2482.35,931z"/>
		<g>
			<path class="st83" d="M2303.43,995.96c0.71,2.72-0.92,5.49-3.64,6.2c-2.72,0.71-5.49-0.92-6.2-3.64
				c-0.71-2.72,0.92-5.49,3.64-6.2C2299.94,991.62,2302.72,993.25,2303.43,995.96z"/>
			<path class="st83" d="M2367.75,979.2c0.44,1.7-0.58,3.44-2.28,3.89c-1.7,0.44-3.44-0.58-3.89-2.28c-0.44-1.7,0.58-3.44,2.28-3.89
				C2365.57,976.48,2367.31,977.5,2367.75,979.2z"/>
			<path class="st83" d="M2352.13,985.13l-39.73,10.36c-0.17,0.04-0.34-0.06-0.39-0.23l-0.75-2.86c-0.04-0.17,0.06-0.34,0.23-0.39
				l39.73-10.36c0.17-0.04,0.34,0.06,0.39,0.23l0.75,2.86C2352.4,984.91,2352.3,985.08,2352.13,985.13z"/>
		</g>
		<path class="st84" d="M2498.26,951.55l146.41,561.75c1.71,6.57-2.22,13.27-8.79,14.99l-308.3,80.35
			c-6.56,1.71-13.27-2.22-14.99-8.79l-146.41-561.75c-1.71-6.57,2.22-13.27,8.79-14.99l63.29-16.5c4.17-1.09,8.57,0.53,11.04,4.06
			l4.57,6.52c2.47,3.53,6.87,5.14,11.04,4.06l138.94-36.21c4.17-1.09,7.22-4.65,7.66-8.93l0.81-7.92c0.44-4.28,3.49-7.84,7.66-8.93
			l63.29-16.5C2489.84,941.05,2496.55,944.99,2498.26,951.55z"/>
		<g>
			
				<ellipse transform="matrix(0.7071 -0.7071 0.7071 0.7071 -209.3794 2088.5)" class="st82" cx="2416.35" cy="1296.99" rx="130.24" ry="130.24"/>
			<g>
				<path class="st85" d="M2341.78,1287.4c0,0,6.21,51.64,70.13,45.76c0,0-16.98-1.26-20.46-25.31
					C2391.45,1307.85,2356.45,1318.9,2341.78,1287.4z"/>
				<path class="st86" d="M2300.32,1260.69c0,0,26.94-6.61,40.19,23.09c0,0,4.8,7.31,14.98,11.56
					C2355.49,1295.34,2339.83,1247.87,2300.32,1260.69z"/>
				<path class="st87" d="M2300.32,1260.69c0,0,26.15-28.46,71.17,14.21c0,0,23.95,25.49,61.82,9.28c0,0-27.07,27.16-65.09-10.52
					c0,0,15.46,13.89,20.42,24.68c0,0-15.65,3.36-33.15-2.99C2355.49,1295.34,2339.63,1248.65,2300.32,1260.69z"/>
				<path class="st88" d="M2340.52,1283.9c0,0,17.06,62.85,110.06-7.27c0,0-8.3,4.48-15.88,7.35
					C2434.83,1283.91,2367.08,1318.08,2340.52,1283.9z"/>
				<path class="st89" d="M2450.57,1276.63c0,0,66.47-29.88,77.77,11.26c0,0-22.46-11.13-47.41,26.01c0,0,0.86,35.03-13.25,40.59
					c0,0-9.85,5.16-19.22-10.86c0,0-2.04-41.37-25.3-48.74L2450.57,1276.63z"/>
				<path class="st90" d="M2459.07,1353.5c0,0,24.72,15.33,21.4-57.88c0,0,0.5-34.32,47.88-7.73c0,0-20.13-8.47-26.5,15.6
					C2501.85,1303.49,2486.34,1367.67,2459.07,1353.5z"/>
				<path class="st91" d="M2368.21,1273.91c0,0,22.67,18.54,23.61,35.96c0,0,2.63,20.4,19.86,23.26c0,0,25.79-5.02,36.87,10.44
					c0,0-2.44-56.75-40.19-50.01C2408.36,1293.56,2389.45,1294.56,2368.21,1273.91z"/>
			</g>
		</g>
	</g>
	<path class="st69" d="M2109.73,1916.95c0,0-53.33-124.1-26.12-274.58"/>
	<path class="st69" d="M1979.62,2051.02c0,0-107.8,32.96-118.73,57.77c-10.94,24.81,48.35,3.93,48.35,3.93"/>
	<path class="st69" d="M2045.9,1542.18c0,0-99.27,98.37-165.69,124.63"/>
	<path class="st69" d="M1720.62,1515.75c0,0-18.08,132.82,49.42,157.9"/>
	<path class="st69" d="M1529.54,1783.97c0,0-0.55-174.15,34.04-227.99"/>
	<path class="st69" d="M1516.64,1606.55c0,0-9.73,108.14,12.08,143.43"/>
	<path class="st69" d="M1445.55,1809.64c0,0-75.5-26.01-91.16,6.24s45.03,3.66,45.03,3.66"/>
	<path class="st69" d="M1490.96,1922.56c0,0-74.15,41.77-77.95,65.66"/>
	<path class="st69" d="M1612.08,1807.03c0,0,141.91,214.5,220.26,194.79"/>
	<path class="st69" d="M1709.05,2107.87c0,0-111.29,81.58-127.48,74.68"/>
	<path class="st74" d="M2488.49,1759.8c7.51-6.17,12.46-10.24,14.07-11.52C2500.88,1749.75,2496.02,1753.97,2488.49,1759.8z"/>
</g>
</svg>
