<?xml version="1.0" encoding="utf-8"?>
<!-- Generator: Adobe Illustrator 24.0.1, SVG Export Plug-In . SVG Version: 6.00 Build 0)  -->
<svg version="1.1" id="Layer_1" xmlns="http://www.w3.org/2000/svg" xmlns:xlink="http://www.w3.org/1999/xlink" x="0px" y="0px"
	 viewBox="0 0 6395 1079" style="enable-background:new 0 0 6395 1079;" xml:space="preserve">
<style type="text/css">
	.st0{clip-path:url(#SVGID_2_);}
	.st1{fill:#F1F5F8;}
	.st2{fill:#E0A861;}
</style>
<g>
	<defs>
		<rect id="SVGID_1_" x="0" width="6395" height="1079"/>
	</defs>
	<clipPath id="SVGID_2_">
		<use xlink:href="#SVGID_1_"  style="overflow:visible;"/>
	</clipPath>
	<g id="Mask_Group_1" transform="translate(5391)" class="st0">
		<g id="Group_118" transform="translate(-419.333 -1.126)">
			<path id="Path_142" class="st1" d="M1395.4-6.2c0,0-222.5,187.8-55.3,583.3c45,106.4,81.5,206,84.5,277
				c8.2,192.8-156,268.6-156,268.6l-653.5-26.8L598.7-21.6L1395.4-6.2z"/>
			<path id="Union_6" class="st2" d="M628.4,1082.6v-1.6h-5599.8V0.8H628.4v0h759.7c0,0-187.8,197.4-91.6,488.8
				c49.2,148.9,96.3,256.3,104.7,362.1c8,100.9-58,201.7-168.6,254.3c-65.9,31.3-144.6,42.4-223,42.4
				C818.3,1148.4,628.4,1082.6,628.4,1082.6z"/>
		</g>
	</g>
</g>
</svg>
